solid ascii
  facet normal -9.967573e-01 -0.000000e+00 -8.046657e-02
    outer loop
      vertex   -4.935251e+00 3.000000e+01 -8.020564e-01
      vertex   -4.935251e+00 2.000000e+01 -8.020564e-01
      vertex   -5.000000e+00 3.000000e+01 6.123234e-16
    endloop
  endfacet
  facet normal -9.709418e-01 0.000000e+00 -2.393157e-01
    outer loop
      vertex   -4.935251e+00 3.000000e+01 -8.020564e-01
      vertex   -4.742682e+00 2.000000e+01 -1.583340e+00
      vertex   -4.935251e+00 2.000000e+01 -8.020564e-01
    endloop
  endfacet
  facet normal -9.709418e-01 -0.000000e+00 -2.393157e-01
    outer loop
      vertex   -4.935251e+00 3.000000e+01 -8.020564e-01
      vertex   -4.742682e+00 3.000000e+01 -1.583340e+00
      vertex   -4.742682e+00 2.000000e+01 -1.583340e+00
    endloop
  endfacet
  facet normal -9.199794e-01 0.000000e+00 -3.919666e-01
    outer loop
      vertex   -4.742682e+00 2.000000e+01 -1.583340e+00
      vertex   -4.742682e+00 3.000000e+01 -1.583340e+00
      vertex   -4.427280e+00 2.000000e+01 -2.323616e+00
    endloop
  endfacet
  facet normal -8.451901e-01 0.000000e+00 -5.344658e-01
    outer loop
      vertex   -4.427280e+00 1.000000e+01 -2.323616e+00
      vertex   -4.427280e+00 2.000000e+01 -2.323616e+00
      vertex   -3.997214e+00 1.000000e+01 -3.003711e+00
    endloop
  endfacet
  facet normal -7.485107e-01 0.000000e+00 -6.631227e-01
    outer loop
      vertex   -3.997214e+00 3.552714e-14 -3.003711e+00
      vertex   -3.997214e+00 1.000000e+01 -3.003711e+00
      vertex   -3.463622e+00 3.552714e-14 -3.606012e+00
    endloop
  endfacet
  facet normal -8.451901e-01 0.000000e+00 -5.344658e-01
    outer loop
      vertex   -3.997214e+00 3.552714e-14 -3.003711e+00
      vertex   -4.427280e+00 1.000000e+01 -2.323616e+00
      vertex   -3.997214e+00 1.000000e+01 -3.003711e+00
    endloop
  endfacet
  facet normal -8.451901e-01 0.000000e+00 -5.344658e-01
    outer loop
      vertex   -3.997214e+00 3.552714e-14 -3.003711e+00
      vertex   -4.427280e+00 3.552714e-14 -2.323616e+00
      vertex   -4.427280e+00 1.000000e+01 -2.323616e+00
    endloop
  endfacet
  facet normal -9.199794e-01 -0.000000e+00 -3.919666e-01
    outer loop
      vertex   -4.427280e+00 1.000000e+01 -2.323616e+00
      vertex   -4.427280e+00 3.552714e-14 -2.323616e+00
      vertex   -4.742682e+00 1.000000e+01 -1.583340e+00
    endloop
  endfacet
  facet normal -9.709418e-01 -0.000000e+00 -2.393157e-01
    outer loop
      vertex   -4.742682e+00 2.000000e+01 -1.583340e+00
      vertex   -4.742682e+00 1.000000e+01 -1.583340e+00
      vertex   -4.935251e+00 2.000000e+01 -8.020564e-01
    endloop
  endfacet
  facet normal -9.199794e-01 0.000000e+00 -3.919666e-01
    outer loop
      vertex   -4.742682e+00 2.000000e+01 -1.583340e+00
      vertex   -4.427280e+00 1.000000e+01 -2.323616e+00
      vertex   -4.742682e+00 1.000000e+01 -1.583340e+00
    endloop
  endfacet
  facet normal -9.199794e-01 -0.000000e+00 -3.919666e-01
    outer loop
      vertex   -4.742682e+00 2.000000e+01 -1.583340e+00
      vertex   -4.427280e+00 2.000000e+01 -2.323616e+00
      vertex   -4.427280e+00 1.000000e+01 -2.323616e+00
    endloop
  endfacet
  facet normal -9.199794e-01 -0.000000e+00 -3.919666e-01
    outer loop
      vertex   -4.742682e+00 3.000000e+01 -1.583340e+00
      vertex   -4.427280e+00 3.000000e+01 -2.323616e+00
      vertex   -4.427280e+00 2.000000e+01 -2.323616e+00
    endloop
  endfacet
  facet normal -8.451901e-01 0.000000e+00 -5.344658e-01
    outer loop
      vertex   -4.427280e+00 2.000000e+01 -2.323616e+00
      vertex   -4.427280e+00 3.000000e+01 -2.323616e+00
      vertex   -3.997214e+00 2.000000e+01 -3.003711e+00
    endloop
  endfacet
  facet normal -7.485107e-01 0.000000e+00 -6.631227e-01
    outer loop
      vertex   -3.997214e+00 1.000000e+01 -3.003711e+00
      vertex   -3.997214e+00 2.000000e+01 -3.003711e+00
      vertex   -3.463622e+00 1.000000e+01 -3.606012e+00
    endloop
  endfacet
  facet normal -6.324454e-01 0.000000e+00 -7.746050e-01
    outer loop
      vertex   -3.463622e+00 3.552714e-14 -3.606012e+00
      vertex   -3.463622e+00 1.000000e+01 -3.606012e+00
      vertex   -2.840324e+00 3.552714e-14 -4.114919e+00
    endloop
  endfacet
  facet normal -7.485107e-01 0.000000e+00 -6.631227e-01
    outer loop
      vertex   -3.463622e+00 3.552714e-14 -3.606012e+00
      vertex   -3.997214e+00 1.000000e+01 -3.003711e+00
      vertex   -3.463622e+00 1.000000e+01 -3.606012e+00
    endloop
  endfacet
  facet normal -8.451901e-01 -0.000000e+00 -5.344658e-01
    outer loop
      vertex   -4.427280e+00 3.000000e+01 -2.323616e+00
      vertex   -3.997214e+00 3.000000e+01 -3.003711e+00
      vertex   -3.997214e+00 2.000000e+01 -3.003711e+00
    endloop
  endfacet
  facet normal -7.485107e-01 0.000000e+00 -6.631227e-01
    outer loop
      vertex   -3.997214e+00 2.000000e+01 -3.003711e+00
      vertex   -3.997214e+00 3.000000e+01 -3.003711e+00
      vertex   -3.463622e+00 2.000000e+01 -3.606012e+00
    endloop
  endfacet
  facet normal -6.324454e-01 0.000000e+00 -7.746050e-01
    outer loop
      vertex   -3.463622e+00 1.000000e+01 -3.606012e+00
      vertex   -3.463622e+00 2.000000e+01 -3.606012e+00
      vertex   -2.840324e+00 1.000000e+01 -4.114919e+00
    endloop
  endfacet
  facet normal -5.000000e-01 0.000000e+00 -8.660254e-01
    outer loop
      vertex   -2.840324e+00 3.552714e-14 -4.114919e+00
      vertex   -2.840324e+00 1.000000e+01 -4.114919e+00
      vertex   -2.143463e+00 3.552714e-14 -4.517252e+00
    endloop
  endfacet
  facet normal -6.324454e-01 0.000000e+00 -7.746050e-01
    outer loop
      vertex   -2.840324e+00 3.552714e-14 -4.114919e+00
      vertex   -3.463622e+00 1.000000e+01 -3.606012e+00
      vertex   -2.840324e+00 1.000000e+01 -4.114919e+00
    endloop
  endfacet
  facet normal -7.485107e-01 -0.000000e+00 -6.631227e-01
    outer loop
      vertex   -3.997214e+00 3.000000e+01 -3.003711e+00
      vertex   -3.463622e+00 3.000000e+01 -3.606012e+00
      vertex   -3.463622e+00 2.000000e+01 -3.606012e+00
    endloop
  endfacet
  facet normal -6.324454e-01 0.000000e+00 -7.746050e-01
    outer loop
      vertex   -3.463622e+00 2.000000e+01 -3.606012e+00
      vertex   -3.463622e+00 3.000000e+01 -3.606012e+00
      vertex   -2.840324e+00 2.000000e+01 -4.114919e+00
    endloop
  endfacet
  facet normal -5.000000e-01 0.000000e+00 -8.660254e-01
    outer loop
      vertex   -2.840324e+00 1.000000e+01 -4.114919e+00
      vertex   -2.840324e+00 2.000000e+01 -4.114919e+00
      vertex   -2.143463e+00 1.000000e+01 -4.517252e+00
    endloop
  endfacet
  facet normal -3.546049e-01 0.000000e+00 -9.350162e-01
    outer loop
      vertex   -2.143463e+00 3.552714e-14 -4.517252e+00
      vertex   -2.143463e+00 1.000000e+01 -4.517252e+00
      vertex   -1.391087e+00 3.552714e-14 -4.802591e+00
    endloop
  endfacet
  facet normal -5.000000e-01 0.000000e+00 -8.660254e-01
    outer loop
      vertex   -2.143463e+00 3.552714e-14 -4.517252e+00
      vertex   -2.840324e+00 1.000000e+01 -4.114919e+00
      vertex   -2.143463e+00 1.000000e+01 -4.517252e+00
    endloop
  endfacet
  facet normal -6.324454e-01 -0.000000e+00 -7.746050e-01
    outer loop
      vertex   -3.463622e+00 3.000000e+01 -3.606012e+00
      vertex   -2.840324e+00 3.000000e+01 -4.114919e+00
      vertex   -2.840324e+00 2.000000e+01 -4.114919e+00
    endloop
  endfacet
  facet normal -5.000000e-01 0.000000e+00 -8.660254e-01
    outer loop
      vertex   -2.840324e+00 2.000000e+01 -4.114919e+00
      vertex   -2.840324e+00 3.000000e+01 -4.114919e+00
      vertex   -2.143463e+00 2.000000e+01 -4.517252e+00
    endloop
  endfacet
  facet normal -3.546049e-01 0.000000e+00 -9.350162e-01
    outer loop
      vertex   -2.143463e+00 1.000000e+01 -4.517252e+00
      vertex   -2.143463e+00 2.000000e+01 -4.517252e+00
      vertex   -1.391087e+00 1.000000e+01 -4.802591e+00
    endloop
  endfacet
  facet normal -2.000257e-01 0.000000e+00 -9.797907e-01
    outer loop
      vertex   -1.391087e+00 3.552714e-14 -4.802591e+00
      vertex   -1.391087e+00 1.000000e+01 -4.802591e+00
      vertex   -6.026834e-01 3.552714e-14 -4.963544e+00
    endloop
  endfacet
  facet normal -3.546049e-01 0.000000e+00 -9.350162e-01
    outer loop
      vertex   -1.391087e+00 3.552714e-14 -4.802591e+00
      vertex   -2.143463e+00 1.000000e+01 -4.517252e+00
      vertex   -1.391087e+00 1.000000e+01 -4.802591e+00
    endloop
  endfacet
  facet normal -5.000000e-01 -0.000000e+00 -8.660254e-01
    outer loop
      vertex   -2.840324e+00 3.000000e+01 -4.114919e+00
      vertex   -2.143463e+00 3.000000e+01 -4.517252e+00
      vertex   -2.143463e+00 2.000000e+01 -4.517252e+00
    endloop
  endfacet
  facet normal -3.546049e-01 0.000000e+00 -9.350162e-01
    outer loop
      vertex   -2.143463e+00 2.000000e+01 -4.517252e+00
      vertex   -2.143463e+00 3.000000e+01 -4.517252e+00
      vertex   -1.391087e+00 2.000000e+01 -4.802591e+00
    endloop
  endfacet
  facet normal -2.000257e-01 0.000000e+00 -9.797907e-01
    outer loop
      vertex   -1.391087e+00 1.000000e+01 -4.802591e+00
      vertex   -1.391087e+00 2.000000e+01 -4.802591e+00
      vertex   -6.026834e-01 1.000000e+01 -4.963544e+00
    endloop
  endfacet
  facet normal -4.026594e-02 0.000000e+00 -9.991890e-01
    outer loop
      vertex   -6.026834e-01 3.552714e-14 -4.963544e+00
      vertex   -6.026834e-01 1.000000e+01 -4.963544e+00
      vertex   2.013297e-01 3.552714e-14 -4.995945e+00
    endloop
  endfacet
  facet normal -2.000257e-01 0.000000e+00 -9.797907e-01
    outer loop
      vertex   -6.026834e-01 3.552714e-14 -4.963544e+00
      vertex   -1.391087e+00 1.000000e+01 -4.802591e+00
      vertex   -6.026834e-01 1.000000e+01 -4.963544e+00
    endloop
  endfacet
  facet normal -3.546049e-01 -0.000000e+00 -9.350162e-01
    outer loop
      vertex   -2.143463e+00 3.000000e+01 -4.517252e+00
      vertex   -1.391087e+00 3.000000e+01 -4.802591e+00
      vertex   -1.391087e+00 2.000000e+01 -4.802591e+00
    endloop
  endfacet
  facet normal -2.000257e-01 0.000000e+00 -9.797907e-01
    outer loop
      vertex   -1.391087e+00 2.000000e+01 -4.802591e+00
      vertex   -1.391087e+00 3.000000e+01 -4.802591e+00
      vertex   -6.026834e-01 2.000000e+01 -4.963544e+00
    endloop
  endfacet
  facet normal -4.026594e-02 0.000000e+00 -9.991890e-01
    outer loop
      vertex   -6.026834e-01 1.000000e+01 -4.963544e+00
      vertex   -6.026834e-01 2.000000e+01 -4.963544e+00
      vertex   2.013297e-01 1.000000e+01 -4.995945e+00
    endloop
  endfacet
  facet normal 1.205367e-01 0.000000e+00 -9.927089e-01
    outer loop
      vertex   2.013297e-01 3.552714e-14 -4.995945e+00
      vertex   2.013297e-01 1.000000e+01 -4.995945e+00
      vertex   1.000128e+00 3.552714e-14 -4.898953e+00
    endloop
  endfacet
  facet normal -4.026594e-02 0.000000e+00 -9.991890e-01
    outer loop
      vertex   2.013297e-01 3.552714e-14 -4.995945e+00
      vertex   -6.026834e-01 1.000000e+01 -4.963544e+00
      vertex   2.013297e-01 1.000000e+01 -4.995945e+00
    endloop
  endfacet
  facet normal -2.000257e-01 -0.000000e+00 -9.797907e-01
    outer loop
      vertex   -1.391087e+00 3.000000e+01 -4.802591e+00
      vertex   -6.026834e-01 3.000000e+01 -4.963544e+00
      vertex   -6.026834e-01 2.000000e+01 -4.963544e+00
    endloop
  endfacet
  facet normal -4.026594e-02 0.000000e+00 -9.991890e-01
    outer loop
      vertex   -6.026834e-01 2.000000e+01 -4.963544e+00
      vertex   -6.026834e-01 3.000000e+01 -4.963544e+00
      vertex   2.013297e-01 2.000000e+01 -4.995945e+00
    endloop
  endfacet
  facet normal 1.205367e-01 0.000000e+00 -9.927089e-01
    outer loop
      vertex   2.013297e-01 1.000000e+01 -4.995945e+00
      vertex   2.013297e-01 2.000000e+01 -4.995945e+00
      vertex   1.000128e+00 1.000000e+01 -4.898953e+00
    endloop
  endfacet
  facet normal 2.782175e-01 0.000000e+00 -9.605181e-01
    outer loop
      vertex   1.000128e+00 3.552714e-14 -4.898953e+00
      vertex   1.000128e+00 1.000000e+01 -4.898953e+00
      vertex   1.773024e+00 3.552714e-14 -4.675081e+00
    endloop
  endfacet
  facet normal 1.205367e-01 0.000000e+00 -9.927089e-01
    outer loop
      vertex   1.000128e+00 3.552714e-14 -4.898953e+00
      vertex   2.013297e-01 1.000000e+01 -4.995945e+00
      vertex   1.000128e+00 1.000000e+01 -4.898953e+00
    endloop
  endfacet
  facet normal -4.026594e-02 -0.000000e+00 -9.991890e-01
    outer loop
      vertex   -6.026834e-01 3.000000e+01 -4.963544e+00
      vertex   2.013297e-01 3.000000e+01 -4.995945e+00
      vertex   2.013297e-01 2.000000e+01 -4.995945e+00
    endloop
  endfacet
  facet normal 1.205367e-01 0.000000e+00 -9.927089e-01
    outer loop
      vertex   2.013297e-01 2.000000e+01 -4.995945e+00
      vertex   2.013297e-01 3.000000e+01 -4.995945e+00
      vertex   1.000128e+00 2.000000e+01 -4.898953e+00
    endloop
  endfacet
  facet normal 2.782175e-01 0.000000e+00 -9.605181e-01
    outer loop
      vertex   1.000128e+00 1.000000e+01 -4.898953e+00
      vertex   1.000128e+00 2.000000e+01 -4.898953e+00
      vertex   1.773024e+00 1.000000e+01 -4.675081e+00
    endloop
  endfacet
  facet normal 4.286926e-01 0.000000e+00 -9.034504e-01
    outer loop
      vertex   1.773024e+00 3.552714e-14 -4.675081e+00
      vertex   1.773024e+00 1.000000e+01 -4.675081e+00
      vertex   2.500000e+00 3.552714e-14 -4.330127e+00
    endloop
  endfacet
  facet normal 2.782175e-01 0.000000e+00 -9.605181e-01
    outer loop
      vertex   1.773024e+00 3.552714e-14 -4.675081e+00
      vertex   1.000128e+00 1.000000e+01 -4.898953e+00
      vertex   1.773024e+00 1.000000e+01 -4.675081e+00
    endloop
  endfacet
  facet normal 1.205367e-01 0.000000e+00 -9.927089e-01
    outer loop
      vertex   2.013297e-01 3.000000e+01 -4.995945e+00
      vertex   1.000128e+00 3.000000e+01 -4.898953e+00
      vertex   1.000128e+00 2.000000e+01 -4.898953e+00
    endloop
  endfacet
  facet normal 2.782175e-01 0.000000e+00 -9.605181e-01
    outer loop
      vertex   1.000128e+00 2.000000e+01 -4.898953e+00
      vertex   1.000128e+00 3.000000e+01 -4.898953e+00
      vertex   1.773024e+00 2.000000e+01 -4.675081e+00
    endloop
  endfacet
  facet normal 4.286926e-01 0.000000e+00 -9.034504e-01
    outer loop
      vertex   1.773024e+00 1.000000e+01 -4.675081e+00
      vertex   1.773024e+00 2.000000e+01 -4.675081e+00
      vertex   2.500000e+00 1.000000e+01 -4.330127e+00
    endloop
  endfacet
  facet normal 5.680647e-01 0.000000e+00 -8.229839e-01
    outer loop
      vertex   2.500000e+00 3.552714e-14 -4.330127e+00
      vertex   2.500000e+00 1.000000e+01 -4.330127e+00
      vertex   3.162227e+00 3.552714e-14 -3.873025e+00
    endloop
  endfacet
  facet normal 4.286926e-01 0.000000e+00 -9.034504e-01
    outer loop
      vertex   2.500000e+00 3.552714e-14 -4.330127e+00
      vertex   1.773024e+00 1.000000e+01 -4.675081e+00
      vertex   2.500000e+00 1.000000e+01 -4.330127e+00
    endloop
  endfacet
  facet normal 2.782175e-01 0.000000e+00 -9.605181e-01
    outer loop
      vertex   1.000128e+00 3.000000e+01 -4.898953e+00
      vertex   1.773024e+00 3.000000e+01 -4.675081e+00
      vertex   1.773024e+00 2.000000e+01 -4.675081e+00
    endloop
  endfacet
  facet normal 4.286926e-01 0.000000e+00 -9.034504e-01
    outer loop
      vertex   1.773024e+00 2.000000e+01 -4.675081e+00
      vertex   1.773024e+00 3.000000e+01 -4.675081e+00
      vertex   2.500000e+00 2.000000e+01 -4.330127e+00
    endloop
  endfacet
  facet normal 5.680647e-01 0.000000e+00 -8.229839e-01
    outer loop
      vertex   2.500000e+00 1.000000e+01 -4.330127e+00
      vertex   2.500000e+00 2.000000e+01 -4.330127e+00
      vertex   3.162227e+00 1.000000e+01 -3.873025e+00
    endloop
  endfacet
  facet normal 6.927244e-01 0.000000e+00 -7.212024e-01
    outer loop
      vertex   3.162227e+00 3.552714e-14 -3.873025e+00
      vertex   3.162227e+00 1.000000e+01 -3.873025e+00
      vertex   3.742554e+00 3.552714e-14 -3.315613e+00
    endloop
  endfacet
  facet normal 5.680647e-01 0.000000e+00 -8.229839e-01
    outer loop
      vertex   3.162227e+00 3.552714e-14 -3.873025e+00
      vertex   2.500000e+00 1.000000e+01 -4.330127e+00
      vertex   3.162227e+00 1.000000e+01 -3.873025e+00
    endloop
  endfacet
  facet normal 4.286926e-01 0.000000e+00 -9.034504e-01
    outer loop
      vertex   1.773024e+00 3.000000e+01 -4.675081e+00
      vertex   2.500000e+00 3.000000e+01 -4.330127e+00
      vertex   2.500000e+00 2.000000e+01 -4.330127e+00
    endloop
  endfacet
  facet normal 5.680647e-01 0.000000e+00 -8.229839e-01
    outer loop
      vertex   2.500000e+00 2.000000e+01 -4.330127e+00
      vertex   2.500000e+00 3.000000e+01 -4.330127e+00
      vertex   3.162227e+00 2.000000e+01 -3.873025e+00
    endloop
  endfacet
  facet normal 6.927244e-01 0.000000e+00 -7.212024e-01
    outer loop
      vertex   3.162227e+00 1.000000e+01 -3.873025e+00
      vertex   3.162227e+00 2.000000e+01 -3.873025e+00
      vertex   3.742554e+00 1.000000e+01 -3.315613e+00
    endloop
  endfacet
  facet normal 7.994428e-01 0.000000e+00 -6.007423e-01
    outer loop
      vertex   3.742554e+00 3.552714e-14 -3.315613e+00
      vertex   3.742554e+00 1.000000e+01 -3.315613e+00
      vertex   4.225950e+00 3.552714e-14 -2.672329e+00
    endloop
  endfacet
  facet normal 6.927244e-01 0.000000e+00 -7.212024e-01
    outer loop
      vertex   3.742554e+00 3.552714e-14 -3.315613e+00
      vertex   3.162227e+00 1.000000e+01 -3.873025e+00
      vertex   3.742554e+00 1.000000e+01 -3.315613e+00
    endloop
  endfacet
  facet normal 5.680647e-01 0.000000e+00 -8.229839e-01
    outer loop
      vertex   2.500000e+00 3.000000e+01 -4.330127e+00
      vertex   3.162227e+00 3.000000e+01 -3.873025e+00
      vertex   3.162227e+00 2.000000e+01 -3.873025e+00
    endloop
  endfacet
  facet normal 6.927244e-01 0.000000e+00 -7.212024e-01
    outer loop
      vertex   3.162227e+00 2.000000e+01 -3.873025e+00
      vertex   3.162227e+00 3.000000e+01 -3.873025e+00
      vertex   3.742554e+00 2.000000e+01 -3.315613e+00
    endloop
  endfacet
  facet normal 7.994428e-01 0.000000e+00 -6.007423e-01
    outer loop
      vertex   3.742554e+00 1.000000e+01 -3.315613e+00
      vertex   3.742554e+00 2.000000e+01 -3.315613e+00
      vertex   4.225950e+00 1.000000e+01 -2.672329e+00
    endloop
  endfacet
  facet normal 8.854560e-01 0.000000e+00 -4.647232e-01
    outer loop
      vertex   4.225950e+00 3.552714e-14 -2.672329e+00
      vertex   4.225950e+00 1.000000e+01 -2.672329e+00
      vertex   4.599897e+00 3.552714e-14 -1.959833e+00
    endloop
  endfacet
  facet normal 7.994428e-01 0.000000e+00 -6.007423e-01
    outer loop
      vertex   4.225950e+00 3.552714e-14 -2.672329e+00
      vertex   3.742554e+00 1.000000e+01 -3.315613e+00
      vertex   4.225950e+00 1.000000e+01 -2.672329e+00
    endloop
  endfacet
  facet normal 6.927244e-01 0.000000e+00 -7.212024e-01
    outer loop
      vertex   3.162227e+00 3.000000e+01 -3.873025e+00
      vertex   3.742554e+00 3.000000e+01 -3.315613e+00
      vertex   3.742554e+00 2.000000e+01 -3.315613e+00
    endloop
  endfacet
  facet normal 7.994428e-01 0.000000e+00 -6.007423e-01
    outer loop
      vertex   3.742554e+00 2.000000e+01 -3.315613e+00
      vertex   3.742554e+00 3.000000e+01 -3.315613e+00
      vertex   4.225950e+00 2.000000e+01 -2.672329e+00
    endloop
  endfacet
  facet normal 8.854560e-01 0.000000e+00 -4.647232e-01
    outer loop
      vertex   4.225950e+00 1.000000e+01 -2.672329e+00
      vertex   4.225950e+00 2.000000e+01 -2.672329e+00
      vertex   4.599897e+00 1.000000e+01 -1.959833e+00
    endloop
  endfacet
  facet normal 9.485364e-01 -7.031442e-18 -3.166680e-01
    outer loop
      vertex   4.599897e+00 3.552714e-14 -1.959833e+00
      vertex   4.599897e+00 1.000000e+01 -1.959833e+00
      vertex   4.854709e+00 3.552714e-14 -1.196578e+00
    endloop
  endfacet
  facet normal 8.854560e-01 -1.379732e-17 -4.647232e-01
    outer loop
      vertex   4.599897e+00 3.552714e-14 -1.959833e+00
      vertex   4.225950e+00 1.000000e+01 -2.672329e+00
      vertex   4.599897e+00 1.000000e+01 -1.959833e+00
    endloop
  endfacet
  facet normal 7.994428e-01 0.000000e+00 -6.007423e-01
    outer loop
      vertex   3.742554e+00 3.000000e+01 -3.315613e+00
      vertex   4.225950e+00 3.000000e+01 -2.672329e+00
      vertex   4.225950e+00 2.000000e+01 -2.672329e+00
    endloop
  endfacet
  facet normal 8.854560e-01 0.000000e+00 -4.647232e-01
    outer loop
      vertex   4.225950e+00 2.000000e+01 -2.672329e+00
      vertex   4.225950e+00 3.000000e+01 -2.672329e+00
      vertex   4.599897e+00 2.000000e+01 -1.959833e+00
    endloop
  endfacet
  facet normal 9.485364e-01 0.000000e+00 -3.166680e-01
    outer loop
      vertex   4.599897e+00 1.000000e+01 -1.959833e+00
      vertex   4.599897e+00 2.000000e+01 -1.959833e+00
      vertex   4.854709e+00 1.000000e+01 -1.196578e+00
    endloop
  endfacet
  facet normal 9.870503e-01 3.561846e-18 -1.604113e-01
    outer loop
      vertex   4.854709e+00 3.552714e-14 -1.196578e+00
      vertex   4.854709e+00 1.000000e+01 -1.196578e+00
      vertex   4.983787e+00 3.552714e-14 -4.023328e-01
    endloop
  endfacet
  facet normal 9.485364e-01 6.898660e-18 -3.166680e-01
    outer loop
      vertex   4.854709e+00 3.552714e-14 -1.196578e+00
      vertex   4.599897e+00 1.000000e+01 -1.959833e+00
      vertex   4.854709e+00 1.000000e+01 -1.196578e+00
    endloop
  endfacet
  facet normal 8.854560e-01 1.031893e-17 -4.647232e-01
    outer loop
      vertex   4.225950e+00 3.000000e+01 -2.672329e+00
      vertex   4.599897e+00 3.000000e+01 -1.959833e+00
      vertex   4.599897e+00 2.000000e+01 -1.959833e+00
    endloop
  endfacet
  facet normal 9.485364e-01 7.031442e-18 -3.166680e-01
    outer loop
      vertex   4.599897e+00 2.000000e+01 -1.959833e+00
      vertex   4.599897e+00 3.000000e+01 -1.959833e+00
      vertex   4.854709e+00 2.000000e+01 -1.196578e+00
    endloop
  endfacet
  facet normal 9.870503e-01 0.000000e+00 -1.604113e-01
    outer loop
      vertex   4.854709e+00 1.000000e+01 -1.196578e+00
      vertex   4.854709e+00 2.000000e+01 -1.196578e+00
      vertex   4.983787e+00 1.000000e+01 -4.023328e-01
    endloop
  endfacet
  facet normal 1.000000e+00 -6.127241e-33 1.103786e-15
    outer loop
      vertex   4.983787e+00 3.552714e-14 -4.023328e-01
      vertex   4.983787e+00 1.000000e+01 -4.023328e-01
      vertex   4.983787e+00 3.552714e-14 4.023328e-01
    endloop
  endfacet
  facet normal 9.870503e-01 1.724665e-18 -1.604113e-01
    outer loop
      vertex   4.983787e+00 3.552714e-14 -4.023328e-01
      vertex   4.854709e+00 1.000000e+01 -1.196578e+00
      vertex   4.983787e+00 1.000000e+01 -4.023328e-01
    endloop
  endfacet
  facet normal 9.485364e-01 -7.031442e-18 -3.166680e-01
    outer loop
      vertex   4.599897e+00 3.000000e+01 -1.959833e+00
      vertex   4.854709e+00 3.000000e+01 -1.196578e+00
      vertex   4.854709e+00 2.000000e+01 -1.196578e+00
    endloop
  endfacet
  facet normal 9.870503e-01 -3.561846e-18 -1.604113e-01
    outer loop
      vertex   4.854709e+00 2.000000e+01 -1.196578e+00
      vertex   4.854709e+00 3.000000e+01 -1.196578e+00
      vertex   4.983787e+00 2.000000e+01 -4.023328e-01
    endloop
  endfacet
  facet normal 1.000000e+00 -0.000000e+00 1.103786e-15
    outer loop
      vertex   4.983787e+00 1.000000e+01 -4.023328e-01
      vertex   4.983787e+00 2.000000e+01 -4.023328e-01
      vertex   4.983787e+00 1.000000e+01 4.023328e-01
    endloop
  endfacet
  facet normal 9.870503e-01 -0.000000e+00 1.604113e-01
    outer loop
      vertex   4.983787e+00 3.552714e-14 4.023328e-01
      vertex   4.983787e+00 1.000000e+01 4.023328e-01
      vertex   4.854709e+00 3.552714e-14 1.196578e+00
    endloop
  endfacet
  facet normal 1.000000e+00 0.000000e+00 1.103786e-15
    outer loop
      vertex   4.983787e+00 3.552714e-14 4.023328e-01
      vertex   4.983787e+00 1.000000e+01 -4.023328e-01
      vertex   4.983787e+00 1.000000e+01 4.023328e-01
    endloop
  endfacet
  facet normal 9.870503e-01 -8.904615e-19 -1.604113e-01
    outer loop
      vertex   4.854709e+00 3.000000e+01 -1.196578e+00
      vertex   4.983787e+00 3.000000e+01 -4.023328e-01
      vertex   4.983787e+00 2.000000e+01 -4.023328e-01
    endloop
  endfacet
  facet normal 1.000000e+00 6.127241e-33 1.103786e-15
    outer loop
      vertex   4.983787e+00 2.000000e+01 -4.023328e-01
      vertex   4.983787e+00 3.000000e+01 -4.023328e-01
      vertex   4.983787e+00 2.000000e+01 4.023328e-01
    endloop
  endfacet
  facet normal 9.870503e-01 -0.000000e+00 1.604113e-01
    outer loop
      vertex   4.983787e+00 1.000000e+01 4.023328e-01
      vertex   4.983787e+00 2.000000e+01 4.023328e-01
      vertex   4.854709e+00 1.000000e+01 1.196578e+00
    endloop
  endfacet
  facet normal 9.485364e-01 -0.000000e+00 3.166680e-01
    outer loop
      vertex   4.854709e+00 3.552714e-14 1.196578e+00
      vertex   4.854709e+00 1.000000e+01 1.196578e+00
      vertex   4.599897e+00 3.552714e-14 1.959833e+00
    endloop
  endfacet
  facet normal 9.870503e-01 0.000000e+00 1.604113e-01
    outer loop
      vertex   4.854709e+00 3.552714e-14 1.196578e+00
      vertex   4.983787e+00 1.000000e+01 4.023328e-01
      vertex   4.854709e+00 1.000000e+01 1.196578e+00
    endloop
  endfacet
  facet normal 1.000000e+00 0.000000e+00 1.103786e-15
    outer loop
      vertex   4.983787e+00 3.000000e+01 -4.023328e-01
      vertex   4.983787e+00 3.000000e+01 4.023328e-01
      vertex   4.983787e+00 2.000000e+01 4.023328e-01
    endloop
  endfacet
  facet normal 9.870503e-01 -0.000000e+00 1.604113e-01
    outer loop
      vertex   4.983787e+00 2.000000e+01 4.023328e-01
      vertex   4.983787e+00 3.000000e+01 4.023328e-01
      vertex   4.854709e+00 2.000000e+01 1.196578e+00
    endloop
  endfacet
  facet normal 9.485364e-01 -0.000000e+00 3.166680e-01
    outer loop
      vertex   4.854709e+00 1.000000e+01 1.196578e+00
      vertex   4.854709e+00 2.000000e+01 1.196578e+00
      vertex   4.599897e+00 1.000000e+01 1.959833e+00
    endloop
  endfacet
  facet normal 8.854560e-01 -1.031893e-17 4.647232e-01
    outer loop
      vertex   4.599897e+00 3.552714e-14 1.959833e+00
      vertex   4.599897e+00 1.000000e+01 1.959833e+00
      vertex   4.225950e+00 3.552714e-14 2.672329e+00
    endloop
  endfacet
  facet normal 9.485364e-01 -6.898660e-18 3.166680e-01
    outer loop
      vertex   4.599897e+00 3.552714e-14 1.959833e+00
      vertex   4.854709e+00 1.000000e+01 1.196578e+00
      vertex   4.599897e+00 1.000000e+01 1.959833e+00
    endloop
  endfacet
  facet normal 9.870503e-01 0.000000e+00 1.604113e-01
    outer loop
      vertex   4.983787e+00 3.000000e+01 4.023328e-01
      vertex   4.854709e+00 3.000000e+01 1.196578e+00
      vertex   4.854709e+00 2.000000e+01 1.196578e+00
    endloop
  endfacet
  facet normal 9.485364e-01 -0.000000e+00 3.166680e-01
    outer loop
      vertex   4.854709e+00 2.000000e+01 1.196578e+00
      vertex   4.854709e+00 3.000000e+01 1.196578e+00
      vertex   4.599897e+00 2.000000e+01 1.959833e+00
    endloop
  endfacet
  facet normal 8.854560e-01 -0.000000e+00 4.647232e-01
    outer loop
      vertex   4.599897e+00 1.000000e+01 1.959833e+00
      vertex   4.599897e+00 2.000000e+01 1.959833e+00
      vertex   4.225950e+00 1.000000e+01 2.672329e+00
    endloop
  endfacet
  facet normal 7.994428e-01 -0.000000e+00 6.007423e-01
    outer loop
      vertex   4.225950e+00 3.552714e-14 2.672329e+00
      vertex   4.225950e+00 1.000000e+01 2.672329e+00
      vertex   3.742554e+00 3.552714e-14 3.315613e+00
    endloop
  endfacet
  facet normal 8.854560e-01 0.000000e+00 4.647232e-01
    outer loop
      vertex   4.225950e+00 3.552714e-14 2.672329e+00
      vertex   4.599897e+00 1.000000e+01 1.959833e+00
      vertex   4.225950e+00 1.000000e+01 2.672329e+00
    endloop
  endfacet
  facet normal 9.485364e-01 7.031442e-18 3.166680e-01
    outer loop
      vertex   4.854709e+00 3.000000e+01 1.196578e+00
      vertex   4.599897e+00 3.000000e+01 1.959833e+00
      vertex   4.599897e+00 2.000000e+01 1.959833e+00
    endloop
  endfacet
  facet normal 8.854560e-01 1.031893e-17 4.647232e-01
    outer loop
      vertex   4.599897e+00 2.000000e+01 1.959833e+00
      vertex   4.599897e+00 3.000000e+01 1.959833e+00
      vertex   4.225950e+00 2.000000e+01 2.672329e+00
    endloop
  endfacet
  facet normal 7.994428e-01 -0.000000e+00 6.007423e-01
    outer loop
      vertex   4.225950e+00 1.000000e+01 2.672329e+00
      vertex   4.225950e+00 2.000000e+01 2.672329e+00
      vertex   3.742554e+00 1.000000e+01 3.315613e+00
    endloop
  endfacet
  facet normal 6.927244e-01 -0.000000e+00 7.212024e-01
    outer loop
      vertex   3.742554e+00 3.552714e-14 3.315613e+00
      vertex   3.742554e+00 1.000000e+01 3.315613e+00
      vertex   3.162227e+00 3.552714e-14 3.873025e+00
    endloop
  endfacet
  facet normal 7.994428e-01 0.000000e+00 6.007423e-01
    outer loop
      vertex   3.742554e+00 3.552714e-14 3.315613e+00
      vertex   4.225950e+00 1.000000e+01 2.672329e+00
      vertex   3.742554e+00 1.000000e+01 3.315613e+00
    endloop
  endfacet
  facet normal 8.854560e-01 0.000000e+00 4.647232e-01
    outer loop
      vertex   4.599897e+00 3.000000e+01 1.959833e+00
      vertex   4.225950e+00 3.000000e+01 2.672329e+00
      vertex   4.225950e+00 2.000000e+01 2.672329e+00
    endloop
  endfacet
  facet normal 7.994428e-01 -0.000000e+00 6.007423e-01
    outer loop
      vertex   4.225950e+00 2.000000e+01 2.672329e+00
      vertex   4.225950e+00 3.000000e+01 2.672329e+00
      vertex   3.742554e+00 2.000000e+01 3.315613e+00
    endloop
  endfacet
  facet normal 6.927244e-01 -0.000000e+00 7.212024e-01
    outer loop
      vertex   3.742554e+00 1.000000e+01 3.315613e+00
      vertex   3.742554e+00 2.000000e+01 3.315613e+00
      vertex   3.162227e+00 1.000000e+01 3.873025e+00
    endloop
  endfacet
  facet normal 5.680647e-01 -2.522714e-17 8.229839e-01
    outer loop
      vertex   3.162227e+00 3.552714e-14 3.873025e+00
      vertex   3.162227e+00 1.000000e+01 3.873025e+00
      vertex   2.500000e+00 3.552714e-14 4.330127e+00
    endloop
  endfacet
  facet normal 6.927244e-01 -3.449330e-17 7.212024e-01
    outer loop
      vertex   3.162227e+00 3.552714e-14 3.873025e+00
      vertex   3.742554e+00 1.000000e+01 3.315613e+00
      vertex   3.162227e+00 1.000000e+01 3.873025e+00
    endloop
  endfacet
  facet normal 7.994428e-01 0.000000e+00 6.007423e-01
    outer loop
      vertex   4.225950e+00 3.000000e+01 2.672329e+00
      vertex   3.742554e+00 3.000000e+01 3.315613e+00
      vertex   3.742554e+00 2.000000e+01 3.315613e+00
    endloop
  endfacet
  facet normal 6.927244e-01 -0.000000e+00 7.212024e-01
    outer loop
      vertex   3.742554e+00 2.000000e+01 3.315613e+00
      vertex   3.742554e+00 3.000000e+01 3.315613e+00
      vertex   3.162227e+00 2.000000e+01 3.873025e+00
    endloop
  endfacet
  facet normal 5.680647e-01 -0.000000e+00 8.229839e-01
    outer loop
      vertex   3.162227e+00 1.000000e+01 3.873025e+00
      vertex   3.162227e+00 2.000000e+01 3.873025e+00
      vertex   2.500000e+00 1.000000e+01 4.330127e+00
    endloop
  endfacet
  facet normal 4.286926e-01 -0.000000e+00 9.034504e-01
    outer loop
      vertex   2.500000e+00 3.552714e-14 4.330127e+00
      vertex   2.500000e+00 1.000000e+01 4.330127e+00
      vertex   1.773024e+00 3.552714e-14 4.675081e+00
    endloop
  endfacet
  facet normal 5.680647e-01 0.000000e+00 8.229839e-01
    outer loop
      vertex   2.500000e+00 3.552714e-14 4.330127e+00
      vertex   3.162227e+00 1.000000e+01 3.873025e+00
      vertex   2.500000e+00 1.000000e+01 4.330127e+00
    endloop
  endfacet
  facet normal 6.927244e-01 3.076314e-17 7.212024e-01
    outer loop
      vertex   3.742554e+00 3.000000e+01 3.315613e+00
      vertex   3.162227e+00 3.000000e+01 3.873025e+00
      vertex   3.162227e+00 2.000000e+01 3.873025e+00
    endloop
  endfacet
  facet normal 5.680647e-01 2.522714e-17 8.229839e-01
    outer loop
      vertex   3.162227e+00 2.000000e+01 3.873025e+00
      vertex   3.162227e+00 3.000000e+01 3.873025e+00
      vertex   2.500000e+00 2.000000e+01 4.330127e+00
    endloop
  endfacet
  facet normal 4.286926e-01 -0.000000e+00 9.034504e-01
    outer loop
      vertex   2.500000e+00 1.000000e+01 4.330127e+00
      vertex   2.500000e+00 2.000000e+01 4.330127e+00
      vertex   1.773024e+00 1.000000e+01 4.675081e+00
    endloop
  endfacet
  facet normal 2.782175e-01 -0.000000e+00 9.605181e-01
    outer loop
      vertex   1.773024e+00 3.552714e-14 4.675081e+00
      vertex   1.773024e+00 1.000000e+01 4.675081e+00
      vertex   1.000128e+00 3.552714e-14 4.898953e+00
    endloop
  endfacet
  facet normal 4.286926e-01 0.000000e+00 9.034504e-01
    outer loop
      vertex   1.773024e+00 3.552714e-14 4.675081e+00
      vertex   2.500000e+00 1.000000e+01 4.330127e+00
      vertex   1.773024e+00 1.000000e+01 4.675081e+00
    endloop
  endfacet
  facet normal 5.680647e-01 0.000000e+00 8.229839e-01
    outer loop
      vertex   3.162227e+00 3.000000e+01 3.873025e+00
      vertex   2.500000e+00 3.000000e+01 4.330127e+00
      vertex   2.500000e+00 2.000000e+01 4.330127e+00
    endloop
  endfacet
  facet normal 4.286926e-01 -0.000000e+00 9.034504e-01
    outer loop
      vertex   2.500000e+00 2.000000e+01 4.330127e+00
      vertex   2.500000e+00 3.000000e+01 4.330127e+00
      vertex   1.773024e+00 2.000000e+01 4.675081e+00
    endloop
  endfacet
  facet normal 2.782175e-01 -0.000000e+00 9.605181e-01
    outer loop
      vertex   1.773024e+00 1.000000e+01 4.675081e+00
      vertex   1.773024e+00 2.000000e+01 4.675081e+00
      vertex   1.000128e+00 1.000000e+01 4.898953e+00
    endloop
  endfacet
  facet normal 1.205367e-01 -0.000000e+00 9.927089e-01
    outer loop
      vertex   1.000128e+00 3.552714e-14 4.898953e+00
      vertex   1.000128e+00 1.000000e+01 4.898953e+00
      vertex   2.013297e-01 3.552714e-14 4.995945e+00
    endloop
  endfacet
  facet normal 2.782175e-01 0.000000e+00 9.605181e-01
    outer loop
      vertex   1.000128e+00 3.552714e-14 4.898953e+00
      vertex   1.773024e+00 1.000000e+01 4.675081e+00
      vertex   1.000128e+00 1.000000e+01 4.898953e+00
    endloop
  endfacet
  facet normal 4.286926e-01 0.000000e+00 9.034504e-01
    outer loop
      vertex   2.500000e+00 3.000000e+01 4.330127e+00
      vertex   1.773024e+00 3.000000e+01 4.675081e+00
      vertex   1.773024e+00 2.000000e+01 4.675081e+00
    endloop
  endfacet
  facet normal 2.782175e-01 -0.000000e+00 9.605181e-01
    outer loop
      vertex   1.773024e+00 2.000000e+01 4.675081e+00
      vertex   1.773024e+00 3.000000e+01 4.675081e+00
      vertex   1.000128e+00 2.000000e+01 4.898953e+00
    endloop
  endfacet
  facet normal 1.205367e-01 -0.000000e+00 9.927089e-01
    outer loop
      vertex   1.000128e+00 1.000000e+01 4.898953e+00
      vertex   1.000128e+00 2.000000e+01 4.898953e+00
      vertex   2.013297e-01 1.000000e+01 4.995945e+00
    endloop
  endfacet
  facet normal -4.026594e-02 0.000000e+00 9.991890e-01
    outer loop
      vertex   2.013297e-01 3.552714e-14 4.995945e+00
      vertex   2.013297e-01 1.000000e+01 4.995945e+00
      vertex   -6.026834e-01 3.552714e-14 4.963544e+00
    endloop
  endfacet
  facet normal 1.205367e-01 0.000000e+00 9.927089e-01
    outer loop
      vertex   2.013297e-01 3.552714e-14 4.995945e+00
      vertex   1.000128e+00 1.000000e+01 4.898953e+00
      vertex   2.013297e-01 1.000000e+01 4.995945e+00
    endloop
  endfacet
  facet normal 2.782175e-01 0.000000e+00 9.605181e-01
    outer loop
      vertex   1.773024e+00 3.000000e+01 4.675081e+00
      vertex   1.000128e+00 3.000000e+01 4.898953e+00
      vertex   1.000128e+00 2.000000e+01 4.898953e+00
    endloop
  endfacet
  facet normal 1.205367e-01 -0.000000e+00 9.927089e-01
    outer loop
      vertex   1.000128e+00 2.000000e+01 4.898953e+00
      vertex   1.000128e+00 3.000000e+01 4.898953e+00
      vertex   2.013297e-01 2.000000e+01 4.995945e+00
    endloop
  endfacet
  facet normal -4.026594e-02 0.000000e+00 9.991890e-01
    outer loop
      vertex   2.013297e-01 1.000000e+01 4.995945e+00
      vertex   2.013297e-01 2.000000e+01 4.995945e+00
      vertex   -6.026834e-01 1.000000e+01 4.963544e+00
    endloop
  endfacet
  facet normal -2.000257e-01 0.000000e+00 9.797907e-01
    outer loop
      vertex   -6.026834e-01 3.552714e-14 4.963544e+00
      vertex   -6.026834e-01 1.000000e+01 4.963544e+00
      vertex   -1.391087e+00 3.552714e-14 4.802591e+00
    endloop
  endfacet
  facet normal -4.026594e-02 0.000000e+00 9.991890e-01
    outer loop
      vertex   -6.026834e-01 3.552714e-14 4.963544e+00
      vertex   2.013297e-01 1.000000e+01 4.995945e+00
      vertex   -6.026834e-01 1.000000e+01 4.963544e+00
    endloop
  endfacet
  facet normal 1.205367e-01 0.000000e+00 9.927089e-01
    outer loop
      vertex   1.000128e+00 3.000000e+01 4.898953e+00
      vertex   2.013297e-01 3.000000e+01 4.995945e+00
      vertex   2.013297e-01 2.000000e+01 4.995945e+00
    endloop
  endfacet
  facet normal -4.026594e-02 0.000000e+00 9.991890e-01
    outer loop
      vertex   2.013297e-01 2.000000e+01 4.995945e+00
      vertex   2.013297e-01 3.000000e+01 4.995945e+00
      vertex   -6.026834e-01 2.000000e+01 4.963544e+00
    endloop
  endfacet
  facet normal -2.000257e-01 0.000000e+00 9.797907e-01
    outer loop
      vertex   -6.026834e-01 1.000000e+01 4.963544e+00
      vertex   -6.026834e-01 2.000000e+01 4.963544e+00
      vertex   -1.391087e+00 1.000000e+01 4.802591e+00
    endloop
  endfacet
  facet normal -3.546049e-01 0.000000e+00 9.350162e-01
    outer loop
      vertex   -1.391087e+00 3.552714e-14 4.802591e+00
      vertex   -1.391087e+00 1.000000e+01 4.802591e+00
      vertex   -2.143463e+00 3.552714e-14 4.517252e+00
    endloop
  endfacet
  facet normal -2.000257e-01 0.000000e+00 9.797907e-01
    outer loop
      vertex   -1.391087e+00 3.552714e-14 4.802591e+00
      vertex   -6.026834e-01 1.000000e+01 4.963544e+00
      vertex   -1.391087e+00 1.000000e+01 4.802591e+00
    endloop
  endfacet
  facet normal -4.026594e-02 0.000000e+00 9.991890e-01
    outer loop
      vertex   2.013297e-01 3.000000e+01 4.995945e+00
      vertex   -6.026834e-01 3.000000e+01 4.963544e+00
      vertex   -6.026834e-01 2.000000e+01 4.963544e+00
    endloop
  endfacet
  facet normal -2.000257e-01 0.000000e+00 9.797907e-01
    outer loop
      vertex   -6.026834e-01 2.000000e+01 4.963544e+00
      vertex   -6.026834e-01 3.000000e+01 4.963544e+00
      vertex   -1.391087e+00 2.000000e+01 4.802591e+00
    endloop
  endfacet
  facet normal -3.546049e-01 0.000000e+00 9.350162e-01
    outer loop
      vertex   -1.391087e+00 1.000000e+01 4.802591e+00
      vertex   -1.391087e+00 2.000000e+01 4.802591e+00
      vertex   -2.143463e+00 1.000000e+01 4.517252e+00
    endloop
  endfacet
  facet normal -5.000000e-01 0.000000e+00 8.660254e-01
    outer loop
      vertex   -2.143463e+00 3.552714e-14 4.517252e+00
      vertex   -2.143463e+00 1.000000e+01 4.517252e+00
      vertex   -2.840324e+00 3.552714e-14 4.114919e+00
    endloop
  endfacet
  facet normal -3.546049e-01 0.000000e+00 9.350162e-01
    outer loop
      vertex   -2.143463e+00 3.552714e-14 4.517252e+00
      vertex   -1.391087e+00 1.000000e+01 4.802591e+00
      vertex   -2.143463e+00 1.000000e+01 4.517252e+00
    endloop
  endfacet
  facet normal -2.000257e-01 0.000000e+00 9.797907e-01
    outer loop
      vertex   -6.026834e-01 3.000000e+01 4.963544e+00
      vertex   -1.391087e+00 3.000000e+01 4.802591e+00
      vertex   -1.391087e+00 2.000000e+01 4.802591e+00
    endloop
  endfacet
  facet normal -3.546049e-01 0.000000e+00 9.350162e-01
    outer loop
      vertex   -1.391087e+00 2.000000e+01 4.802591e+00
      vertex   -1.391087e+00 3.000000e+01 4.802591e+00
      vertex   -2.143463e+00 2.000000e+01 4.517252e+00
    endloop
  endfacet
  facet normal -5.000000e-01 0.000000e+00 8.660254e-01
    outer loop
      vertex   -2.143463e+00 1.000000e+01 4.517252e+00
      vertex   -2.143463e+00 2.000000e+01 4.517252e+00
      vertex   -2.840324e+00 1.000000e+01 4.114919e+00
    endloop
  endfacet
  facet normal -6.324454e-01 0.000000e+00 7.746050e-01
    outer loop
      vertex   -2.840324e+00 3.552714e-14 4.114919e+00
      vertex   -2.840324e+00 1.000000e+01 4.114919e+00
      vertex   -3.463622e+00 3.552714e-14 3.606012e+00
    endloop
  endfacet
  facet normal -5.000000e-01 0.000000e+00 8.660254e-01
    outer loop
      vertex   -2.840324e+00 3.552714e-14 4.114919e+00
      vertex   -2.143463e+00 1.000000e+01 4.517252e+00
      vertex   -2.840324e+00 1.000000e+01 4.114919e+00
    endloop
  endfacet
  facet normal -3.546049e-01 0.000000e+00 9.350162e-01
    outer loop
      vertex   -1.391087e+00 3.000000e+01 4.802591e+00
      vertex   -2.143463e+00 3.000000e+01 4.517252e+00
      vertex   -2.143463e+00 2.000000e+01 4.517252e+00
    endloop
  endfacet
  facet normal -5.000000e-01 0.000000e+00 8.660254e-01
    outer loop
      vertex   -2.143463e+00 2.000000e+01 4.517252e+00
      vertex   -2.143463e+00 3.000000e+01 4.517252e+00
      vertex   -2.840324e+00 2.000000e+01 4.114919e+00
    endloop
  endfacet
  facet normal -6.324454e-01 0.000000e+00 7.746050e-01
    outer loop
      vertex   -2.840324e+00 1.000000e+01 4.114919e+00
      vertex   -2.840324e+00 2.000000e+01 4.114919e+00
      vertex   -3.463622e+00 1.000000e+01 3.606012e+00
    endloop
  endfacet
  facet normal -7.485107e-01 0.000000e+00 6.631227e-01
    outer loop
      vertex   -3.463622e+00 3.552714e-14 3.606012e+00
      vertex   -3.463622e+00 1.000000e+01 3.606012e+00
      vertex   -3.997214e+00 3.552714e-14 3.003711e+00
    endloop
  endfacet
  facet normal -6.324454e-01 0.000000e+00 7.746050e-01
    outer loop
      vertex   -3.463622e+00 3.552714e-14 3.606012e+00
      vertex   -2.840324e+00 1.000000e+01 4.114919e+00
      vertex   -3.463622e+00 1.000000e+01 3.606012e+00
    endloop
  endfacet
  facet normal -5.000000e-01 0.000000e+00 8.660254e-01
    outer loop
      vertex   -2.143463e+00 3.000000e+01 4.517252e+00
      vertex   -2.840324e+00 3.000000e+01 4.114919e+00
      vertex   -2.840324e+00 2.000000e+01 4.114919e+00
    endloop
  endfacet
  facet normal -6.324454e-01 0.000000e+00 7.746050e-01
    outer loop
      vertex   -2.840324e+00 2.000000e+01 4.114919e+00
      vertex   -2.840324e+00 3.000000e+01 4.114919e+00
      vertex   -3.463622e+00 2.000000e+01 3.606012e+00
    endloop
  endfacet
  facet normal -7.485107e-01 0.000000e+00 6.631227e-01
    outer loop
      vertex   -3.463622e+00 1.000000e+01 3.606012e+00
      vertex   -3.463622e+00 2.000000e+01 3.606012e+00
      vertex   -3.997214e+00 1.000000e+01 3.003711e+00
    endloop
  endfacet
  facet normal -8.451901e-01 0.000000e+00 5.344658e-01
    outer loop
      vertex   -3.997214e+00 3.552714e-14 3.003711e+00
      vertex   -3.997214e+00 1.000000e+01 3.003711e+00
      vertex   -4.427280e+00 3.552714e-14 2.323616e+00
    endloop
  endfacet
  facet normal -7.485107e-01 0.000000e+00 6.631227e-01
    outer loop
      vertex   -3.997214e+00 3.552714e-14 3.003711e+00
      vertex   -3.463622e+00 1.000000e+01 3.606012e+00
      vertex   -3.997214e+00 1.000000e+01 3.003711e+00
    endloop
  endfacet
  facet normal -6.324454e-01 0.000000e+00 7.746050e-01
    outer loop
      vertex   -2.840324e+00 3.000000e+01 4.114919e+00
      vertex   -3.463622e+00 3.000000e+01 3.606012e+00
      vertex   -3.463622e+00 2.000000e+01 3.606012e+00
    endloop
  endfacet
  facet normal -7.485107e-01 0.000000e+00 6.631227e-01
    outer loop
      vertex   -3.463622e+00 2.000000e+01 3.606012e+00
      vertex   -3.463622e+00 3.000000e+01 3.606012e+00
      vertex   -3.997214e+00 2.000000e+01 3.003711e+00
    endloop
  endfacet
  facet normal -8.451901e-01 0.000000e+00 5.344658e-01
    outer loop
      vertex   -3.997214e+00 1.000000e+01 3.003711e+00
      vertex   -3.997214e+00 2.000000e+01 3.003711e+00
      vertex   -4.427280e+00 1.000000e+01 2.323616e+00
    endloop
  endfacet
  facet normal -9.199794e-01 0.000000e+00 3.919666e-01
    outer loop
      vertex   -4.427280e+00 3.552714e-14 2.323616e+00
      vertex   -4.427280e+00 1.000000e+01 2.323616e+00
      vertex   -4.742682e+00 3.552714e-14 1.583340e+00
    endloop
  endfacet
  facet normal -8.451901e-01 0.000000e+00 5.344658e-01
    outer loop
      vertex   -4.427280e+00 3.552714e-14 2.323616e+00
      vertex   -3.997214e+00 1.000000e+01 3.003711e+00
      vertex   -4.427280e+00 1.000000e+01 2.323616e+00
    endloop
  endfacet
  facet normal -7.485107e-01 0.000000e+00 6.631227e-01
    outer loop
      vertex   -3.463622e+00 3.000000e+01 3.606012e+00
      vertex   -3.997214e+00 3.000000e+01 3.003711e+00
      vertex   -3.997214e+00 2.000000e+01 3.003711e+00
    endloop
  endfacet
  facet normal -8.451901e-01 0.000000e+00 5.344658e-01
    outer loop
      vertex   -3.997214e+00 2.000000e+01 3.003711e+00
      vertex   -3.997214e+00 3.000000e+01 3.003711e+00
      vertex   -4.427280e+00 2.000000e+01 2.323616e+00
    endloop
  endfacet
  facet normal -9.199794e-01 0.000000e+00 3.919666e-01
    outer loop
      vertex   -4.427280e+00 1.000000e+01 2.323616e+00
      vertex   -4.427280e+00 2.000000e+01 2.323616e+00
      vertex   -4.742682e+00 1.000000e+01 1.583340e+00
    endloop
  endfacet
  facet normal -9.709418e-01 0.000000e+00 2.393157e-01
    outer loop
      vertex   -4.742682e+00 3.552714e-14 1.583340e+00
      vertex   -4.742682e+00 1.000000e+01 1.583340e+00
      vertex   -4.935251e+00 3.552714e-14 8.020564e-01
    endloop
  endfacet
  facet normal -9.199794e-01 0.000000e+00 3.919666e-01
    outer loop
      vertex   -4.742682e+00 3.552714e-14 1.583340e+00
      vertex   -4.427280e+00 1.000000e+01 2.323616e+00
      vertex   -4.742682e+00 1.000000e+01 1.583340e+00
    endloop
  endfacet
  facet normal -8.451901e-01 0.000000e+00 5.344658e-01
    outer loop
      vertex   -3.997214e+00 3.000000e+01 3.003711e+00
      vertex   -4.427280e+00 3.000000e+01 2.323616e+00
      vertex   -4.427280e+00 2.000000e+01 2.323616e+00
    endloop
  endfacet
  facet normal -9.199794e-01 0.000000e+00 3.919666e-01
    outer loop
      vertex   -4.427280e+00 2.000000e+01 2.323616e+00
      vertex   -4.427280e+00 3.000000e+01 2.323616e+00
      vertex   -4.742682e+00 2.000000e+01 1.583340e+00
    endloop
  endfacet
  facet normal -9.709418e-01 0.000000e+00 2.393157e-01
    outer loop
      vertex   -4.742682e+00 1.000000e+01 1.583340e+00
      vertex   -4.742682e+00 2.000000e+01 1.583340e+00
      vertex   -4.935251e+00 1.000000e+01 8.020564e-01
    endloop
  endfacet
  facet normal -9.967573e-01 0.000000e+00 8.046657e-02
    outer loop
      vertex   -4.935251e+00 3.552714e-14 8.020564e-01
      vertex   -4.935251e+00 1.000000e+01 8.020564e-01
      vertex   -5.000000e+00 3.552714e-14 6.123234e-16
    endloop
  endfacet
  facet normal -9.709418e-01 0.000000e+00 2.393157e-01
    outer loop
      vertex   -4.935251e+00 3.552714e-14 8.020564e-01
      vertex   -4.742682e+00 1.000000e+01 1.583340e+00
      vertex   -4.935251e+00 1.000000e+01 8.020564e-01
    endloop
  endfacet
  facet normal -9.199794e-01 0.000000e+00 3.919666e-01
    outer loop
      vertex   -4.427280e+00 3.000000e+01 2.323616e+00
      vertex   -4.742682e+00 3.000000e+01 1.583340e+00
      vertex   -4.742682e+00 2.000000e+01 1.583340e+00
    endloop
  endfacet
  facet normal -9.709418e-01 0.000000e+00 2.393157e-01
    outer loop
      vertex   -4.742682e+00 2.000000e+01 1.583340e+00
      vertex   -4.742682e+00 3.000000e+01 1.583340e+00
      vertex   -4.935251e+00 2.000000e+01 8.020564e-01
    endloop
  endfacet
  facet normal -9.967573e-01 0.000000e+00 8.046657e-02
    outer loop
      vertex   -4.935251e+00 1.000000e+01 8.020564e-01
      vertex   -4.935251e+00 2.000000e+01 8.020564e-01
      vertex   -5.000000e+00 1.000000e+01 6.123234e-16
    endloop
  endfacet
  facet normal -9.967573e-01 0.000000e+00 -8.046657e-02
    outer loop
      vertex   -5.000000e+00 3.552714e-14 6.123234e-16
      vertex   -5.000000e+00 1.000000e+01 6.123234e-16
      vertex   -4.935251e+00 3.552714e-14 -8.020564e-01
    endloop
  endfacet
  facet normal -9.967573e-01 0.000000e+00 8.046657e-02
    outer loop
      vertex   -5.000000e+00 3.552714e-14 6.123234e-16
      vertex   -4.935251e+00 1.000000e+01 8.020564e-01
      vertex   -5.000000e+00 1.000000e+01 6.123234e-16
    endloop
  endfacet
  facet normal -9.709418e-01 0.000000e+00 2.393157e-01
    outer loop
      vertex   -4.742682e+00 3.000000e+01 1.583340e+00
      vertex   -4.935251e+00 3.000000e+01 8.020564e-01
      vertex   -4.935251e+00 2.000000e+01 8.020564e-01
    endloop
  endfacet
  facet normal -9.967573e-01 0.000000e+00 8.046657e-02
    outer loop
      vertex   -4.935251e+00 2.000000e+01 8.020564e-01
      vertex   -4.935251e+00 3.000000e+01 8.020564e-01
      vertex   -5.000000e+00 2.000000e+01 6.123234e-16
    endloop
  endfacet
  facet normal -9.967573e-01 0.000000e+00 -8.046657e-02
    outer loop
      vertex   -5.000000e+00 1.000000e+01 6.123234e-16
      vertex   -5.000000e+00 2.000000e+01 6.123234e-16
      vertex   -4.935251e+00 1.000000e+01 -8.020564e-01
    endloop
  endfacet
  facet normal -9.709418e-01 0.000000e+00 -2.393157e-01
    outer loop
      vertex   -4.935251e+00 3.552714e-14 -8.020564e-01
      vertex   -4.935251e+00 1.000000e+01 -8.020564e-01
      vertex   -4.742682e+00 3.552714e-14 -1.583340e+00
    endloop
  endfacet
  facet normal -9.967573e-01 0.000000e+00 -8.046657e-02
    outer loop
      vertex   -4.935251e+00 3.552714e-14 -8.020564e-01
      vertex   -5.000000e+00 1.000000e+01 6.123234e-16
      vertex   -4.935251e+00 1.000000e+01 -8.020564e-01
    endloop
  endfacet
  facet normal -9.967573e-01 0.000000e+00 8.046657e-02
    outer loop
      vertex   -4.935251e+00 3.000000e+01 8.020564e-01
      vertex   -5.000000e+00 3.000000e+01 6.123234e-16
      vertex   -5.000000e+00 2.000000e+01 6.123234e-16
    endloop
  endfacet
  facet normal -9.967573e-01 0.000000e+00 -8.046657e-02
    outer loop
      vertex   -5.000000e+00 2.000000e+01 6.123234e-16
      vertex   -5.000000e+00 3.000000e+01 6.123234e-16
      vertex   -4.935251e+00 2.000000e+01 -8.020564e-01
    endloop
  endfacet
  facet normal -9.709418e-01 0.000000e+00 -2.393157e-01
    outer loop
      vertex   -4.935251e+00 1.000000e+01 -8.020564e-01
      vertex   -4.935251e+00 2.000000e+01 -8.020564e-01
      vertex   -4.742682e+00 1.000000e+01 -1.583340e+00
    endloop
  endfacet
  facet normal -9.199794e-01 0.000000e+00 -3.919666e-01
    outer loop
      vertex   -4.742682e+00 3.552714e-14 -1.583340e+00
      vertex   -4.742682e+00 1.000000e+01 -1.583340e+00
      vertex   -4.427280e+00 3.552714e-14 -2.323616e+00
    endloop
  endfacet
  facet normal -9.709418e-01 0.000000e+00 -2.393157e-01
    outer loop
      vertex   -4.742682e+00 3.552714e-14 -1.583340e+00
      vertex   -4.935251e+00 1.000000e+01 -8.020564e-01
      vertex   -4.742682e+00 1.000000e+01 -1.583340e+00
    endloop
  endfacet
  facet normal -9.967573e-01 0.000000e+00 8.046657e-02
    outer loop
      vertex   -5.000000e+00 2.000000e+01 6.123234e-16
      vertex   -5.000000e+00 1.000000e+01 6.123234e-16
      vertex   -4.935251e+00 2.000000e+01 8.020564e-01
    endloop
  endfacet
  facet normal -9.967573e-01 0.000000e+00 -8.046657e-02
    outer loop
      vertex   -4.935251e+00 1.000000e+01 -8.020564e-01
      vertex   -5.000000e+00 2.000000e+01 6.123234e-16
      vertex   -4.935251e+00 2.000000e+01 -8.020564e-01
    endloop
  endfacet
  facet normal -8.451901e-01 0.000000e+00 -5.344658e-01
    outer loop
      vertex   -3.997214e+00 1.000000e+01 -3.003711e+00
      vertex   -4.427280e+00 2.000000e+01 -2.323616e+00
      vertex   -3.997214e+00 2.000000e+01 -3.003711e+00
    endloop
  endfacet
  facet normal -7.485107e-01 0.000000e+00 -6.631227e-01
    outer loop
      vertex   -3.463622e+00 1.000000e+01 -3.606012e+00
      vertex   -3.997214e+00 2.000000e+01 -3.003711e+00
      vertex   -3.463622e+00 2.000000e+01 -3.606012e+00
    endloop
  endfacet
  facet normal -6.324454e-01 0.000000e+00 -7.746050e-01
    outer loop
      vertex   -2.840324e+00 1.000000e+01 -4.114919e+00
      vertex   -3.463622e+00 2.000000e+01 -3.606012e+00
      vertex   -2.840324e+00 2.000000e+01 -4.114919e+00
    endloop
  endfacet
  facet normal -5.000000e-01 0.000000e+00 -8.660254e-01
    outer loop
      vertex   -2.143463e+00 1.000000e+01 -4.517252e+00
      vertex   -2.840324e+00 2.000000e+01 -4.114919e+00
      vertex   -2.143463e+00 2.000000e+01 -4.517252e+00
    endloop
  endfacet
  facet normal -3.546049e-01 0.000000e+00 -9.350162e-01
    outer loop
      vertex   -1.391087e+00 1.000000e+01 -4.802591e+00
      vertex   -2.143463e+00 2.000000e+01 -4.517252e+00
      vertex   -1.391087e+00 2.000000e+01 -4.802591e+00
    endloop
  endfacet
  facet normal -2.000257e-01 0.000000e+00 -9.797907e-01
    outer loop
      vertex   -6.026834e-01 1.000000e+01 -4.963544e+00
      vertex   -1.391087e+00 2.000000e+01 -4.802591e+00
      vertex   -6.026834e-01 2.000000e+01 -4.963544e+00
    endloop
  endfacet
  facet normal -4.026594e-02 0.000000e+00 -9.991890e-01
    outer loop
      vertex   2.013297e-01 1.000000e+01 -4.995945e+00
      vertex   -6.026834e-01 2.000000e+01 -4.963544e+00
      vertex   2.013297e-01 2.000000e+01 -4.995945e+00
    endloop
  endfacet
  facet normal 1.205367e-01 0.000000e+00 -9.927089e-01
    outer loop
      vertex   1.000128e+00 1.000000e+01 -4.898953e+00
      vertex   2.013297e-01 2.000000e+01 -4.995945e+00
      vertex   1.000128e+00 2.000000e+01 -4.898953e+00
    endloop
  endfacet
  facet normal 2.782175e-01 0.000000e+00 -9.605181e-01
    outer loop
      vertex   1.773024e+00 1.000000e+01 -4.675081e+00
      vertex   1.000128e+00 2.000000e+01 -4.898953e+00
      vertex   1.773024e+00 2.000000e+01 -4.675081e+00
    endloop
  endfacet
  facet normal 4.286926e-01 0.000000e+00 -9.034504e-01
    outer loop
      vertex   2.500000e+00 1.000000e+01 -4.330127e+00
      vertex   1.773024e+00 2.000000e+01 -4.675081e+00
      vertex   2.500000e+00 2.000000e+01 -4.330127e+00
    endloop
  endfacet
  facet normal 5.680647e-01 0.000000e+00 -8.229839e-01
    outer loop
      vertex   3.162227e+00 1.000000e+01 -3.873025e+00
      vertex   2.500000e+00 2.000000e+01 -4.330127e+00
      vertex   3.162227e+00 2.000000e+01 -3.873025e+00
    endloop
  endfacet
  facet normal 6.927244e-01 0.000000e+00 -7.212024e-01
    outer loop
      vertex   3.742554e+00 1.000000e+01 -3.315613e+00
      vertex   3.162227e+00 2.000000e+01 -3.873025e+00
      vertex   3.742554e+00 2.000000e+01 -3.315613e+00
    endloop
  endfacet
  facet normal 7.994428e-01 0.000000e+00 -6.007423e-01
    outer loop
      vertex   4.225950e+00 1.000000e+01 -2.672329e+00
      vertex   3.742554e+00 2.000000e+01 -3.315613e+00
      vertex   4.225950e+00 2.000000e+01 -2.672329e+00
    endloop
  endfacet
  facet normal 8.854560e-01 0.000000e+00 -4.647232e-01
    outer loop
      vertex   4.599897e+00 1.000000e+01 -1.959833e+00
      vertex   4.225950e+00 2.000000e+01 -2.672329e+00
      vertex   4.599897e+00 2.000000e+01 -1.959833e+00
    endloop
  endfacet
  facet normal 9.485364e-01 0.000000e+00 -3.166680e-01
    outer loop
      vertex   4.854709e+00 1.000000e+01 -1.196578e+00
      vertex   4.599897e+00 2.000000e+01 -1.959833e+00
      vertex   4.854709e+00 2.000000e+01 -1.196578e+00
    endloop
  endfacet
  facet normal 9.870503e-01 0.000000e+00 -1.604113e-01
    outer loop
      vertex   4.983787e+00 1.000000e+01 -4.023328e-01
      vertex   4.854709e+00 2.000000e+01 -1.196578e+00
      vertex   4.983787e+00 2.000000e+01 -4.023328e-01
    endloop
  endfacet
  facet normal 1.000000e+00 0.000000e+00 1.103786e-15
    outer loop
      vertex   4.983787e+00 1.000000e+01 4.023328e-01
      vertex   4.983787e+00 2.000000e+01 -4.023328e-01
      vertex   4.983787e+00 2.000000e+01 4.023328e-01
    endloop
  endfacet
  facet normal 9.870503e-01 0.000000e+00 1.604113e-01
    outer loop
      vertex   4.854709e+00 1.000000e+01 1.196578e+00
      vertex   4.983787e+00 2.000000e+01 4.023328e-01
      vertex   4.854709e+00 2.000000e+01 1.196578e+00
    endloop
  endfacet
  facet normal 9.485364e-01 0.000000e+00 3.166680e-01
    outer loop
      vertex   4.599897e+00 1.000000e+01 1.959833e+00
      vertex   4.854709e+00 2.000000e+01 1.196578e+00
      vertex   4.599897e+00 2.000000e+01 1.959833e+00
    endloop
  endfacet
  facet normal 8.854560e-01 0.000000e+00 4.647232e-01
    outer loop
      vertex   4.225950e+00 1.000000e+01 2.672329e+00
      vertex   4.599897e+00 2.000000e+01 1.959833e+00
      vertex   4.225950e+00 2.000000e+01 2.672329e+00
    endloop
  endfacet
  facet normal 7.994428e-01 0.000000e+00 6.007423e-01
    outer loop
      vertex   3.742554e+00 1.000000e+01 3.315613e+00
      vertex   4.225950e+00 2.000000e+01 2.672329e+00
      vertex   3.742554e+00 2.000000e+01 3.315613e+00
    endloop
  endfacet
  facet normal 6.927244e-01 0.000000e+00 7.212024e-01
    outer loop
      vertex   3.162227e+00 1.000000e+01 3.873025e+00
      vertex   3.742554e+00 2.000000e+01 3.315613e+00
      vertex   3.162227e+00 2.000000e+01 3.873025e+00
    endloop
  endfacet
  facet normal 5.680647e-01 0.000000e+00 8.229839e-01
    outer loop
      vertex   2.500000e+00 1.000000e+01 4.330127e+00
      vertex   3.162227e+00 2.000000e+01 3.873025e+00
      vertex   2.500000e+00 2.000000e+01 4.330127e+00
    endloop
  endfacet
  facet normal 4.286926e-01 0.000000e+00 9.034504e-01
    outer loop
      vertex   1.773024e+00 1.000000e+01 4.675081e+00
      vertex   2.500000e+00 2.000000e+01 4.330127e+00
      vertex   1.773024e+00 2.000000e+01 4.675081e+00
    endloop
  endfacet
  facet normal 2.782175e-01 0.000000e+00 9.605181e-01
    outer loop
      vertex   1.000128e+00 1.000000e+01 4.898953e+00
      vertex   1.773024e+00 2.000000e+01 4.675081e+00
      vertex   1.000128e+00 2.000000e+01 4.898953e+00
    endloop
  endfacet
  facet normal 1.205367e-01 0.000000e+00 9.927089e-01
    outer loop
      vertex   2.013297e-01 1.000000e+01 4.995945e+00
      vertex   1.000128e+00 2.000000e+01 4.898953e+00
      vertex   2.013297e-01 2.000000e+01 4.995945e+00
    endloop
  endfacet
  facet normal -4.026594e-02 0.000000e+00 9.991890e-01
    outer loop
      vertex   -6.026834e-01 1.000000e+01 4.963544e+00
      vertex   2.013297e-01 2.000000e+01 4.995945e+00
      vertex   -6.026834e-01 2.000000e+01 4.963544e+00
    endloop
  endfacet
  facet normal -2.000257e-01 0.000000e+00 9.797907e-01
    outer loop
      vertex   -1.391087e+00 1.000000e+01 4.802591e+00
      vertex   -6.026834e-01 2.000000e+01 4.963544e+00
      vertex   -1.391087e+00 2.000000e+01 4.802591e+00
    endloop
  endfacet
  facet normal -3.546049e-01 0.000000e+00 9.350162e-01
    outer loop
      vertex   -2.143463e+00 1.000000e+01 4.517252e+00
      vertex   -1.391087e+00 2.000000e+01 4.802591e+00
      vertex   -2.143463e+00 2.000000e+01 4.517252e+00
    endloop
  endfacet
  facet normal -5.000000e-01 0.000000e+00 8.660254e-01
    outer loop
      vertex   -2.840324e+00 1.000000e+01 4.114919e+00
      vertex   -2.143463e+00 2.000000e+01 4.517252e+00
      vertex   -2.840324e+00 2.000000e+01 4.114919e+00
    endloop
  endfacet
  facet normal -6.324454e-01 0.000000e+00 7.746050e-01
    outer loop
      vertex   -3.463622e+00 1.000000e+01 3.606012e+00
      vertex   -2.840324e+00 2.000000e+01 4.114919e+00
      vertex   -3.463622e+00 2.000000e+01 3.606012e+00
    endloop
  endfacet
  facet normal -7.485107e-01 0.000000e+00 6.631227e-01
    outer loop
      vertex   -3.997214e+00 1.000000e+01 3.003711e+00
      vertex   -3.463622e+00 2.000000e+01 3.606012e+00
      vertex   -3.997214e+00 2.000000e+01 3.003711e+00
    endloop
  endfacet
  facet normal -8.451901e-01 0.000000e+00 5.344658e-01
    outer loop
      vertex   -4.427280e+00 1.000000e+01 2.323616e+00
      vertex   -3.997214e+00 2.000000e+01 3.003711e+00
      vertex   -4.427280e+00 2.000000e+01 2.323616e+00
    endloop
  endfacet
  facet normal -9.199794e-01 0.000000e+00 3.919666e-01
    outer loop
      vertex   -4.742682e+00 1.000000e+01 1.583340e+00
      vertex   -4.427280e+00 2.000000e+01 2.323616e+00
      vertex   -4.742682e+00 2.000000e+01 1.583340e+00
    endloop
  endfacet
  facet normal -9.709418e-01 0.000000e+00 2.393157e-01
    outer loop
      vertex   -4.935251e+00 1.000000e+01 8.020564e-01
      vertex   -4.742682e+00 2.000000e+01 1.583340e+00
      vertex   -4.935251e+00 2.000000e+01 8.020564e-01
    endloop
  endfacet
  facet normal 0.000000e+00 1.000000e+00 0.000000e+00
    outer loop
      vertex   -4.935251e+00 3.000000e+01 8.020564e-01
      vertex   4.983787e+00 3.000000e+01 4.023328e-01
      vertex   -5.000000e+00 3.000000e+01 6.123234e-16
    endloop
  endfacet
  facet normal -0.000000e+00 1.000000e+00 0.000000e+00
    outer loop
      vertex   -4.935251e+00 3.000000e+01 8.020564e-01
      vertex   4.854709e+00 3.000000e+01 1.196578e+00
      vertex   4.983787e+00 3.000000e+01 4.023328e-01
    endloop
  endfacet
  facet normal -0.000000e+00 1.000000e+00 0.000000e+00
    outer loop
      vertex   -4.935251e+00 3.000000e+01 8.020564e-01
      vertex   -4.742682e+00 3.000000e+01 1.583340e+00
      vertex   4.854709e+00 3.000000e+01 1.196578e+00
    endloop
  endfacet
  facet normal 0.000000e+00 1.000000e+00 -0.000000e+00
    outer loop
      vertex   4.854709e+00 3.000000e+01 1.196578e+00
      vertex   -4.742682e+00 3.000000e+01 1.583340e+00
      vertex   4.599897e+00 3.000000e+01 1.959833e+00
    endloop
  endfacet
  facet normal 0.000000e+00 1.000000e+00 -0.000000e+00
    outer loop
      vertex   4.599897e+00 3.000000e+01 1.959833e+00
      vertex   -4.742682e+00 3.000000e+01 1.583340e+00
      vertex   -4.427280e+00 3.000000e+01 2.323616e+00
    endloop
  endfacet
  facet normal 0.000000e+00 1.000000e+00 -0.000000e+00
    outer loop
      vertex   4.225950e+00 3.000000e+01 2.672329e+00
      vertex   -4.427280e+00 3.000000e+01 2.323616e+00
      vertex   -3.997214e+00 3.000000e+01 3.003711e+00
    endloop
  endfacet
  facet normal 0.000000e+00 1.000000e+00 -0.000000e+00
    outer loop
      vertex   3.742554e+00 3.000000e+01 3.315613e+00
      vertex   -3.997214e+00 3.000000e+01 3.003711e+00
      vertex   -3.463622e+00 3.000000e+01 3.606012e+00
    endloop
  endfacet
  facet normal 0.000000e+00 1.000000e+00 -0.000000e+00
    outer loop
      vertex   3.162227e+00 3.000000e+01 3.873025e+00
      vertex   -3.463622e+00 3.000000e+01 3.606012e+00
      vertex   -2.840324e+00 3.000000e+01 4.114919e+00
    endloop
  endfacet
  facet normal 0.000000e+00 1.000000e+00 -0.000000e+00
    outer loop
      vertex   2.500000e+00 3.000000e+01 4.330127e+00
      vertex   -2.840324e+00 3.000000e+01 4.114919e+00
      vertex   -2.143463e+00 3.000000e+01 4.517252e+00
    endloop
  endfacet
  facet normal 0.000000e+00 1.000000e+00 -0.000000e+00
    outer loop
      vertex   1.773024e+00 3.000000e+01 4.675081e+00
      vertex   -2.143463e+00 3.000000e+01 4.517252e+00
      vertex   -1.391087e+00 3.000000e+01 4.802591e+00
    endloop
  endfacet
  facet normal 0.000000e+00 1.000000e+00 -0.000000e+00
    outer loop
      vertex   1.000128e+00 3.000000e+01 4.898953e+00
      vertex   -1.391087e+00 3.000000e+01 4.802591e+00
      vertex   -6.026834e-01 3.000000e+01 4.963544e+00
    endloop
  endfacet
  facet normal 0.000000e+00 1.000000e+00 0.000000e+00
    outer loop
      vertex   2.013297e-01 3.000000e+01 4.995945e+00
      vertex   1.000128e+00 3.000000e+01 4.898953e+00
      vertex   -6.026834e-01 3.000000e+01 4.963544e+00
    endloop
  endfacet
  facet normal 0.000000e+00 1.000000e+00 -0.000000e+00
    outer loop
      vertex   4.599897e+00 3.000000e+01 1.959833e+00
      vertex   -4.427280e+00 3.000000e+01 2.323616e+00
      vertex   4.225950e+00 3.000000e+01 2.672329e+00
    endloop
  endfacet
  facet normal 0.000000e+00 1.000000e+00 -0.000000e+00
    outer loop
      vertex   4.225950e+00 3.000000e+01 2.672329e+00
      vertex   -3.997214e+00 3.000000e+01 3.003711e+00
      vertex   3.742554e+00 3.000000e+01 3.315613e+00
    endloop
  endfacet
  facet normal 0.000000e+00 1.000000e+00 -0.000000e+00
    outer loop
      vertex   3.742554e+00 3.000000e+01 3.315613e+00
      vertex   -3.463622e+00 3.000000e+01 3.606012e+00
      vertex   3.162227e+00 3.000000e+01 3.873025e+00
    endloop
  endfacet
  facet normal 0.000000e+00 1.000000e+00 -0.000000e+00
    outer loop
      vertex   3.162227e+00 3.000000e+01 3.873025e+00
      vertex   -2.840324e+00 3.000000e+01 4.114919e+00
      vertex   2.500000e+00 3.000000e+01 4.330127e+00
    endloop
  endfacet
  facet normal 0.000000e+00 1.000000e+00 -0.000000e+00
    outer loop
      vertex   2.500000e+00 3.000000e+01 4.330127e+00
      vertex   -2.143463e+00 3.000000e+01 4.517252e+00
      vertex   1.773024e+00 3.000000e+01 4.675081e+00
    endloop
  endfacet
  facet normal 0.000000e+00 1.000000e+00 -0.000000e+00
    outer loop
      vertex   1.773024e+00 3.000000e+01 4.675081e+00
      vertex   -1.391087e+00 3.000000e+01 4.802591e+00
      vertex   1.000128e+00 3.000000e+01 4.898953e+00
    endloop
  endfacet
  facet normal 0.000000e+00 1.000000e+00 0.000000e+00
    outer loop
      vertex   4.983787e+00 3.000000e+01 4.023328e-01
      vertex   4.983787e+00 3.000000e+01 -4.023328e-01
      vertex   -5.000000e+00 3.000000e+01 6.123234e-16
    endloop
  endfacet
  facet normal 0.000000e+00 1.000000e+00 0.000000e+00
    outer loop
      vertex   -5.000000e+00 3.000000e+01 6.123234e-16
      vertex   4.983787e+00 3.000000e+01 -4.023328e-01
      vertex   -4.935251e+00 3.000000e+01 -8.020564e-01
    endloop
  endfacet
  facet normal -0.000000e+00 1.000000e+00 0.000000e+00
    outer loop
      vertex   -4.935251e+00 3.000000e+01 -8.020564e-01
      vertex   4.983787e+00 3.000000e+01 -4.023328e-01
      vertex   4.854709e+00 3.000000e+01 -1.196578e+00
    endloop
  endfacet
  facet normal -0.000000e+00 1.000000e+00 0.000000e+00
    outer loop
      vertex   -4.742682e+00 3.000000e+01 -1.583340e+00
      vertex   4.854709e+00 3.000000e+01 -1.196578e+00
      vertex   4.599897e+00 3.000000e+01 -1.959833e+00
    endloop
  endfacet
  facet normal -0.000000e+00 1.000000e+00 0.000000e+00
    outer loop
      vertex   -4.427280e+00 3.000000e+01 -2.323616e+00
      vertex   4.599897e+00 3.000000e+01 -1.959833e+00
      vertex   4.225950e+00 3.000000e+01 -2.672329e+00
    endloop
  endfacet
  facet normal -0.000000e+00 1.000000e+00 0.000000e+00
    outer loop
      vertex   -3.997214e+00 3.000000e+01 -3.003711e+00
      vertex   4.225950e+00 3.000000e+01 -2.672329e+00
      vertex   3.742554e+00 3.000000e+01 -3.315613e+00
    endloop
  endfacet
  facet normal -0.000000e+00 1.000000e+00 0.000000e+00
    outer loop
      vertex   -3.463622e+00 3.000000e+01 -3.606012e+00
      vertex   3.742554e+00 3.000000e+01 -3.315613e+00
      vertex   3.162227e+00 3.000000e+01 -3.873025e+00
    endloop
  endfacet
  facet normal -0.000000e+00 1.000000e+00 0.000000e+00
    outer loop
      vertex   -2.840324e+00 3.000000e+01 -4.114919e+00
      vertex   3.162227e+00 3.000000e+01 -3.873025e+00
      vertex   2.500000e+00 3.000000e+01 -4.330127e+00
    endloop
  endfacet
  facet normal -0.000000e+00 1.000000e+00 0.000000e+00
    outer loop
      vertex   -2.143463e+00 3.000000e+01 -4.517252e+00
      vertex   2.500000e+00 3.000000e+01 -4.330127e+00
      vertex   1.773024e+00 3.000000e+01 -4.675081e+00
    endloop
  endfacet
  facet normal -0.000000e+00 1.000000e+00 0.000000e+00
    outer loop
      vertex   -1.391087e+00 3.000000e+01 -4.802591e+00
      vertex   1.773024e+00 3.000000e+01 -4.675081e+00
      vertex   1.000128e+00 3.000000e+01 -4.898953e+00
    endloop
  endfacet
  facet normal -0.000000e+00 1.000000e+00 0.000000e+00
    outer loop
      vertex   -6.026834e-01 3.000000e+01 -4.963544e+00
      vertex   1.000128e+00 3.000000e+01 -4.898953e+00
      vertex   2.013297e-01 3.000000e+01 -4.995945e+00
    endloop
  endfacet
  facet normal -0.000000e+00 1.000000e+00 -0.000000e+00
    outer loop
      vertex   -6.026834e-01 3.000000e+01 -4.963544e+00
      vertex   -1.391087e+00 3.000000e+01 -4.802591e+00
      vertex   1.000128e+00 3.000000e+01 -4.898953e+00
    endloop
  endfacet
  facet normal 0.000000e+00 1.000000e+00 0.000000e+00
    outer loop
      vertex   -4.935251e+00 3.000000e+01 -8.020564e-01
      vertex   4.854709e+00 3.000000e+01 -1.196578e+00
      vertex   -4.742682e+00 3.000000e+01 -1.583340e+00
    endloop
  endfacet
  facet normal 0.000000e+00 1.000000e+00 0.000000e+00
    outer loop
      vertex   -4.742682e+00 3.000000e+01 -1.583340e+00
      vertex   4.599897e+00 3.000000e+01 -1.959833e+00
      vertex   -4.427280e+00 3.000000e+01 -2.323616e+00
    endloop
  endfacet
  facet normal 0.000000e+00 1.000000e+00 0.000000e+00
    outer loop
      vertex   -4.427280e+00 3.000000e+01 -2.323616e+00
      vertex   4.225950e+00 3.000000e+01 -2.672329e+00
      vertex   -3.997214e+00 3.000000e+01 -3.003711e+00
    endloop
  endfacet
  facet normal 0.000000e+00 1.000000e+00 0.000000e+00
    outer loop
      vertex   -3.997214e+00 3.000000e+01 -3.003711e+00
      vertex   3.742554e+00 3.000000e+01 -3.315613e+00
      vertex   -3.463622e+00 3.000000e+01 -3.606012e+00
    endloop
  endfacet
  facet normal 0.000000e+00 1.000000e+00 0.000000e+00
    outer loop
      vertex   -3.463622e+00 3.000000e+01 -3.606012e+00
      vertex   3.162227e+00 3.000000e+01 -3.873025e+00
      vertex   -2.840324e+00 3.000000e+01 -4.114919e+00
    endloop
  endfacet
  facet normal 0.000000e+00 1.000000e+00 0.000000e+00
    outer loop
      vertex   -2.840324e+00 3.000000e+01 -4.114919e+00
      vertex   2.500000e+00 3.000000e+01 -4.330127e+00
      vertex   -2.143463e+00 3.000000e+01 -4.517252e+00
    endloop
  endfacet
  facet normal 0.000000e+00 1.000000e+00 0.000000e+00
    outer loop
      vertex   -2.143463e+00 3.000000e+01 -4.517252e+00
      vertex   1.773024e+00 3.000000e+01 -4.675081e+00
      vertex   -1.391087e+00 3.000000e+01 -4.802591e+00
    endloop
  endfacet
  facet normal 0.000000e+00 -1.000000e+00 0.000000e+00
    outer loop
      vertex   -4.935251e+00 3.552714e-14 -8.020564e-01
      vertex   4.983787e+00 3.552714e-14 -4.023328e-01
      vertex   -5.000000e+00 3.552714e-14 6.123234e-16
    endloop
  endfacet
  facet normal 0.000000e+00 -1.000000e+00 0.000000e+00
    outer loop
      vertex   -4.935251e+00 3.552714e-14 -8.020564e-01
      vertex   4.854709e+00 3.552714e-14 -1.196578e+00
      vertex   4.983787e+00 3.552714e-14 -4.023328e-01
    endloop
  endfacet
  facet normal 0.000000e+00 -1.000000e+00 0.000000e+00
    outer loop
      vertex   -4.935251e+00 3.552714e-14 -8.020564e-01
      vertex   -4.742682e+00 3.552714e-14 -1.583340e+00
      vertex   4.854709e+00 3.552714e-14 -1.196578e+00
    endloop
  endfacet
  facet normal 0.000000e+00 -1.000000e+00 -0.000000e+00
    outer loop
      vertex   4.854709e+00 3.552714e-14 -1.196578e+00
      vertex   -4.742682e+00 3.552714e-14 -1.583340e+00
      vertex   4.599897e+00 3.552714e-14 -1.959833e+00
    endloop
  endfacet
  facet normal -0.000000e+00 -1.000000e+00 -0.000000e+00
    outer loop
      vertex   4.599897e+00 3.552714e-14 -1.959833e+00
      vertex   -4.742682e+00 3.552714e-14 -1.583340e+00
      vertex   -4.427280e+00 3.552714e-14 -2.323616e+00
    endloop
  endfacet
  facet normal -0.000000e+00 -1.000000e+00 -0.000000e+00
    outer loop
      vertex   4.225950e+00 3.552714e-14 -2.672329e+00
      vertex   -4.427280e+00 3.552714e-14 -2.323616e+00
      vertex   -3.997214e+00 3.552714e-14 -3.003711e+00
    endloop
  endfacet
  facet normal -0.000000e+00 -1.000000e+00 -0.000000e+00
    outer loop
      vertex   3.742554e+00 3.552714e-14 -3.315613e+00
      vertex   -3.997214e+00 3.552714e-14 -3.003711e+00
      vertex   -3.463622e+00 3.552714e-14 -3.606012e+00
    endloop
  endfacet
  facet normal -0.000000e+00 -1.000000e+00 -0.000000e+00
    outer loop
      vertex   3.162227e+00 3.552714e-14 -3.873025e+00
      vertex   -3.463622e+00 3.552714e-14 -3.606012e+00
      vertex   -2.840324e+00 3.552714e-14 -4.114919e+00
    endloop
  endfacet
  facet normal -0.000000e+00 -1.000000e+00 -0.000000e+00
    outer loop
      vertex   2.500000e+00 3.552714e-14 -4.330127e+00
      vertex   -2.840324e+00 3.552714e-14 -4.114919e+00
      vertex   -2.143463e+00 3.552714e-14 -4.517252e+00
    endloop
  endfacet
  facet normal -0.000000e+00 -1.000000e+00 -0.000000e+00
    outer loop
      vertex   1.773024e+00 3.552714e-14 -4.675081e+00
      vertex   -2.143463e+00 3.552714e-14 -4.517252e+00
      vertex   -1.391087e+00 3.552714e-14 -4.802591e+00
    endloop
  endfacet
  facet normal -0.000000e+00 -1.000000e+00 -0.000000e+00
    outer loop
      vertex   1.000128e+00 3.552714e-14 -4.898953e+00
      vertex   -1.391087e+00 3.552714e-14 -4.802591e+00
      vertex   -6.026834e-01 3.552714e-14 -4.963544e+00
    endloop
  endfacet
  facet normal -0.000000e+00 -1.000000e+00 0.000000e+00
    outer loop
      vertex   2.013297e-01 3.552714e-14 -4.995945e+00
      vertex   1.000128e+00 3.552714e-14 -4.898953e+00
      vertex   -6.026834e-01 3.552714e-14 -4.963544e+00
    endloop
  endfacet
  facet normal 0.000000e+00 -1.000000e+00 -0.000000e+00
    outer loop
      vertex   4.599897e+00 3.552714e-14 -1.959833e+00
      vertex   -4.427280e+00 3.552714e-14 -2.323616e+00
      vertex   4.225950e+00 3.552714e-14 -2.672329e+00
    endloop
  endfacet
  facet normal 0.000000e+00 -1.000000e+00 -0.000000e+00
    outer loop
      vertex   4.225950e+00 3.552714e-14 -2.672329e+00
      vertex   -3.997214e+00 3.552714e-14 -3.003711e+00
      vertex   3.742554e+00 3.552714e-14 -3.315613e+00
    endloop
  endfacet
  facet normal 0.000000e+00 -1.000000e+00 -0.000000e+00
    outer loop
      vertex   3.742554e+00 3.552714e-14 -3.315613e+00
      vertex   -3.463622e+00 3.552714e-14 -3.606012e+00
      vertex   3.162227e+00 3.552714e-14 -3.873025e+00
    endloop
  endfacet
  facet normal 0.000000e+00 -1.000000e+00 -0.000000e+00
    outer loop
      vertex   3.162227e+00 3.552714e-14 -3.873025e+00
      vertex   -2.840324e+00 3.552714e-14 -4.114919e+00
      vertex   2.500000e+00 3.552714e-14 -4.330127e+00
    endloop
  endfacet
  facet normal 0.000000e+00 -1.000000e+00 -0.000000e+00
    outer loop
      vertex   2.500000e+00 3.552714e-14 -4.330127e+00
      vertex   -2.143463e+00 3.552714e-14 -4.517252e+00
      vertex   1.773024e+00 3.552714e-14 -4.675081e+00
    endloop
  endfacet
  facet normal 0.000000e+00 -1.000000e+00 -0.000000e+00
    outer loop
      vertex   1.773024e+00 3.552714e-14 -4.675081e+00
      vertex   -1.391087e+00 3.552714e-14 -4.802591e+00
      vertex   1.000128e+00 3.552714e-14 -4.898953e+00
    endloop
  endfacet
  facet normal -0.000000e+00 -1.000000e+00 0.000000e+00
    outer loop
      vertex   4.983787e+00 3.552714e-14 -4.023328e-01
      vertex   4.983787e+00 3.552714e-14 4.023328e-01
      vertex   -5.000000e+00 3.552714e-14 6.123234e-16
    endloop
  endfacet
  facet normal 0.000000e+00 -1.000000e+00 0.000000e+00
    outer loop
      vertex   -5.000000e+00 3.552714e-14 6.123234e-16
      vertex   4.983787e+00 3.552714e-14 4.023328e-01
      vertex   -4.935251e+00 3.552714e-14 8.020564e-01
    endloop
  endfacet
  facet normal 0.000000e+00 -1.000000e+00 0.000000e+00
    outer loop
      vertex   -4.935251e+00 3.552714e-14 8.020564e-01
      vertex   4.983787e+00 3.552714e-14 4.023328e-01
      vertex   4.854709e+00 3.552714e-14 1.196578e+00
    endloop
  endfacet
  facet normal 0.000000e+00 -1.000000e+00 0.000000e+00
    outer loop
      vertex   -4.742682e+00 3.552714e-14 1.583340e+00
      vertex   4.854709e+00 3.552714e-14 1.196578e+00
      vertex   4.599897e+00 3.552714e-14 1.959833e+00
    endloop
  endfacet
  facet normal 0.000000e+00 -1.000000e+00 0.000000e+00
    outer loop
      vertex   -4.427280e+00 3.552714e-14 2.323616e+00
      vertex   4.599897e+00 3.552714e-14 1.959833e+00
      vertex   4.225950e+00 3.552714e-14 2.672329e+00
    endloop
  endfacet
  facet normal 0.000000e+00 -1.000000e+00 0.000000e+00
    outer loop
      vertex   -3.997214e+00 3.552714e-14 3.003711e+00
      vertex   4.225950e+00 3.552714e-14 2.672329e+00
      vertex   3.742554e+00 3.552714e-14 3.315613e+00
    endloop
  endfacet
  facet normal 0.000000e+00 -1.000000e+00 0.000000e+00
    outer loop
      vertex   -3.463622e+00 3.552714e-14 3.606012e+00
      vertex   3.742554e+00 3.552714e-14 3.315613e+00
      vertex   3.162227e+00 3.552714e-14 3.873025e+00
    endloop
  endfacet
  facet normal 0.000000e+00 -1.000000e+00 0.000000e+00
    outer loop
      vertex   -2.840324e+00 3.552714e-14 4.114919e+00
      vertex   3.162227e+00 3.552714e-14 3.873025e+00
      vertex   2.500000e+00 3.552714e-14 4.330127e+00
    endloop
  endfacet
  facet normal 0.000000e+00 -1.000000e+00 0.000000e+00
    outer loop
      vertex   -2.143463e+00 3.552714e-14 4.517252e+00
      vertex   2.500000e+00 3.552714e-14 4.330127e+00
      vertex   1.773024e+00 3.552714e-14 4.675081e+00
    endloop
  endfacet
  facet normal 0.000000e+00 -1.000000e+00 0.000000e+00
    outer loop
      vertex   -1.391087e+00 3.552714e-14 4.802591e+00
      vertex   1.773024e+00 3.552714e-14 4.675081e+00
      vertex   1.000128e+00 3.552714e-14 4.898953e+00
    endloop
  endfacet
  facet normal 0.000000e+00 -1.000000e+00 0.000000e+00
    outer loop
      vertex   -6.026834e-01 3.552714e-14 4.963544e+00
      vertex   1.000128e+00 3.552714e-14 4.898953e+00
      vertex   2.013297e-01 3.552714e-14 4.995945e+00
    endloop
  endfacet
  facet normal 0.000000e+00 -1.000000e+00 -0.000000e+00
    outer loop
      vertex   -6.026834e-01 3.552714e-14 4.963544e+00
      vertex   -1.391087e+00 3.552714e-14 4.802591e+00
      vertex   1.000128e+00 3.552714e-14 4.898953e+00
    endloop
  endfacet
  facet normal 0.000000e+00 -1.000000e+00 0.000000e+00
    outer loop
      vertex   -4.935251e+00 3.552714e-14 8.020564e-01
      vertex   4.854709e+00 3.552714e-14 1.196578e+00
      vertex   -4.742682e+00 3.552714e-14 1.583340e+00
    endloop
  endfacet
  facet normal 0.000000e+00 -1.000000e+00 0.000000e+00
    outer loop
      vertex   -4.742682e+00 3.552714e-14 1.583340e+00
      vertex   4.599897e+00 3.552714e-14 1.959833e+00
      vertex   -4.427280e+00 3.552714e-14 2.323616e+00
    endloop
  endfacet
  facet normal 0.000000e+00 -1.000000e+00 0.000000e+00
    outer loop
      vertex   -4.427280e+00 3.552714e-14 2.323616e+00
      vertex   4.225950e+00 3.552714e-14 2.672329e+00
      vertex   -3.997214e+00 3.552714e-14 3.003711e+00
    endloop
  endfacet
  facet normal 0.000000e+00 -1.000000e+00 0.000000e+00
    outer loop
      vertex   -3.997214e+00 3.552714e-14 3.003711e+00
      vertex   3.742554e+00 3.552714e-14 3.315613e+00
      vertex   -3.463622e+00 3.552714e-14 3.606012e+00
    endloop
  endfacet
  facet normal 0.000000e+00 -1.000000e+00 0.000000e+00
    outer loop
      vertex   -3.463622e+00 3.552714e-14 3.606012e+00
      vertex   3.162227e+00 3.552714e-14 3.873025e+00
      vertex   -2.840324e+00 3.552714e-14 4.114919e+00
    endloop
  endfacet
  facet normal 0.000000e+00 -1.000000e+00 0.000000e+00
    outer loop
      vertex   -2.840324e+00 3.552714e-14 4.114919e+00
      vertex   2.500000e+00 3.552714e-14 4.330127e+00
      vertex   -2.143463e+00 3.552714e-14 4.517252e+00
    endloop
  endfacet
  facet normal 0.000000e+00 -1.000000e+00 0.000000e+00
    outer loop
      vertex   -2.143463e+00 3.552714e-14 4.517252e+00
      vertex   1.773024e+00 3.552714e-14 4.675081e+00
      vertex   -1.391087e+00 3.552714e-14 4.802591e+00
    endloop
  endfacet
endsolid
